<svg width="492.481" height="492.481" xmlns="http://www.w3.org/2000/svg" xml:space="preserve" version="1.1">

 <g>
  <title>Layer 1</title>
  <polygon id="svg_1" fill="#ffffff" points="9.687000274658203,297.1409912109375 119.73500061035156,0 255.45498657226562,0 145.3979949951172,297.1409912109375 "/>
  <polygon id="svg_2" fill="#ffffff" points="113.33699798583984,389.8070068359375 223.40899658203125,92.67400360107422 359.1440124511719,92.67400360107422 249.07199096679688,389.8070068359375 "/>
  <polygon id="svg_3" fill="#ffffff" points="215.0260009765625,488.4809875488281 325.0830078125,191.34800720214844 460.79400634765625,191.34800720214844 350.7460021972656,488.4809875488281 "/>
  <g id="svg_4"/>
  <g id="svg_5"/>
  <g id="svg_6"/>
  <g id="svg_7"/>
  <g id="svg_8"/>
  <g id="svg_9"/>
  <g id="svg_10"/>
  <g id="svg_11"/>
  <g id="svg_12"/>
  <g id="svg_13"/>
  <g id="svg_14"/>
  <g id="svg_15"/>
  <g id="svg_16"/>
  <g id="svg_17"/>
  <g id="svg_18"/>
  <line id="svg_19" y2="244.75951" x2="242.24048" y1="162.75951" x1="279.24048" fill="none"/>
  <line id="svg_20" y2="262.75951" x2="273.24048" y1="245.75951" x1="267.24048" fill="none"/>
  <line id="svg_21" y2="156.75951" x2="259.24048" y1="167.75951" x1="336.24048" fill="none"/>
  <line stroke="null" id="svg_22" y2="260.75951" x2="239.24048" y1="166.75951" x1="318.24048" fill="none"/>
  <line id="svg_23" y2="322.75951" x2="202.24048" y1="165.75951" x1="257.24048" fill="none"/>
  <path id="svg_26" d="m119.95929,158.5951l13.75087,0l4.24913,-4.20163l4.24913,4.20163l13.75087,0l-11.12467,2.59672l4.24935,4.20163l-11.12467,-2.59679l-11.12467,2.59679l4.24935,-4.20163l-11.12467,-2.59672z" stroke="null" fill="none"/>
 </g>
</svg>