<svg viewBox="0 0 640 800" xmlns="http://www.w3.org/2000/svg" xmlns:xlink="http://www.w3.org/1999/xlink" class="overlay" style="mix-blend-mode: multiply;"><g transform="matrix(1.0236179922, 0, 0, 1.0236179922, 193, 89.683838)" style="isolation: isolate;"><path d="M44.44,137.49c3.77-1.75,65.12-30.29,66.88-31.19a14.75,14.75,0,0,0,7.61-9.85c.36-1.78.33-4.66.86-6.53s1.87-2.93,3.7-3.81,14.13-6.59,16.08-7.47a13.19,13.19,0,0,1,7-.83c2.61.33,7.21,3.19,8.16,10.56.16,1.27.23,3.52.21,13.66s0,348.19,0,351.5-.19,11.7-7.89,21.41c-2,2.46-4.68,5.15-10.42,7.78s-4.24,2-25.46,11.94-89.5,42-93.93,44-9.59,1.86-13.07-3C1,531.2,1.56,523.81,1.56,518.25s0-349.07,0-356,4.4-16.74,9.08-21.2,7.47-5.54,13.65-8.46,9.16-4.29,10-4.67,2.69,0,2.75,2.43.32,5.34,1.8,6.41S41.76,138.72,44.44,137.49Z" transform="translate(0 14.05)" style="opacity: 0.3; fill: url(&quot;#e707f0f8-509f-499b-972c-fe7d44a6fd9c&quot;);"></path></g></svg>