<svg width="685" height="510" xmlns="http://www.w3.org/2000/svg" xml:space="preserve" version="1.1">
 <title>Rectangle 2</title>
 <defs>
  <linearGradient y2="1.27044" x2="1.049" y1="0.01004" x1="0.01231" id="SVGID_2_">
   <stop stop-color="#62EFA9" offset="0"/>
   <stop stop-color="#5AC5A1" offset="1"/>
  </linearGradient>
  <linearGradient y2="2.33229" x2="0.49496" y1="0.06005" x1="0.5018" id="SVGID_4_">
   <stop stop-color="#FC7373" offset="0"/>
   <stop stop-color="#FC7373" stop-opacity="0" offset="0.3177"/>
  </linearGradient>
  <linearGradient y2="1.51757" x2="0.50062" y1="0.03688" x1="0.49901" id="svg_68">
   <stop stop-color="#62EFA9" offset="0"/>
   <stop stop-color="#5AC5A1" stop-opacity="0" offset="0.4531"/>
  </linearGradient>
 </defs>
 <g>
  <title>Layer 1</title>
  <path id="svg_1" fill="#FFFFFF" d="m89.5,299.7l369,0c2.6,0 4.7,2.1 4.7,4.7l0,200.6c0,2.6 -2.1,4.7 -4.7,4.7l-369,0c-2.6,0 -4.7,-2.1 -4.7,-4.7l0,-200.5c0,-2.6 2.1,-4.8 4.7,-4.8z" class="st0"/>
  <path id="svg_2" fill="#8F90A3" d="m118.3,359.5l-1.6,0l-6.8,-10.4l-0.1,0c0.1,1.2 0.1,2.3 0.1,3.4l0,7l-1.3,0l0,-12.4l1.6,0l6.7,10.3l0.1,0c0,-0.2 0,-0.6 -0.1,-1.5c0,-0.8 -0.1,-1.4 0,-1.8l0,-7.1l1.3,0l0,12.5l0.1,0zm4.6,0l-1.4,0l0,-9.3l1.4,0l0,9.3zm-1.6,-11.8c0,-0.3 0.1,-0.6 0.2,-0.7c0.2,-0.2 0.4,-0.2 0.6,-0.2c0.2,0 0.4,0.1 0.6,0.2c0.2,0.2 0.2,0.4 0.2,0.7c0,0.3 -0.1,0.6 -0.2,0.7c-0.2,0.2 -0.4,0.2 -0.6,0.2c-0.2,0 -0.4,-0.1 -0.6,-0.2c-0.1,-0.2 -0.2,-0.4 -0.2,-0.7zm5.9,7c0.2,-0.3 0.6,-0.8 1.1,-1.4l3,-3.2l1.7,0l-3.8,4l4,5.3l-1.7,0l-3.3,-4.4l-1.1,0.9l0,3.5l-1.4,0l0,-13.2l1.4,0l0,7c0.1,0.4 0.1,0.9 0.1,1.5l0,0zm11.7,5c-1.4,0 -2.5,-0.4 -3.3,-1.3c-0.8,-0.8 -1.2,-2 -1.2,-3.5c0,-1.5 0.4,-2.7 1.1,-3.6c0.7,-0.9 1.7,-1.3 3,-1.3c1.2,0 2.1,0.4 2.8,1.2c0.7,0.8 1,1.8 1,3l0,0.9l-6.4,0c0,1.1 0.3,1.9 0.8,2.5c0.5,0.6 1.3,0.8 2.2,0.8c1,0 2,-0.2 3,-0.6l0,1.3c-0.5,0.2 -1,0.4 -1.4,0.5c-0.5,0 -1,0.1 -1.6,0.1zm-0.4,-8.5c-0.7,0 -1.3,0.2 -1.8,0.7c-0.4,0.5 -0.7,1.2 -0.8,2l4.9,0c0,-0.9 -0.2,-1.6 -0.6,-2c-0.4,-0.5 -1,-0.7 -1.7,-0.7zm7.7,6.3l0.1,0.2c-0.1,0.6 -0.4,1.2 -0.6,2c-0.3,0.8 -0.6,1.4 -0.9,2.1l-1.1,0c0.2,-0.6 0.3,-1.3 0.5,-2.2c0.2,-0.9 0.3,-1.6 0.4,-2.1l1.6,0zm7.5,2l0,-12.4l1.4,0l0,12.4l-1.4,0zm10.9,0l0,-6c0,-0.8 -0.2,-1.3 -0.5,-1.7c-0.3,-0.4 -0.9,-0.6 -1.6,-0.6c-1,0 -1.7,0.3 -2.1,0.8c-0.5,0.5 -0.7,1.4 -0.7,2.6l0,4.9l-1.4,0l0,-9.3l1.1,0l0.2,1.3l0.1,0c0.3,-0.5 0.7,-0.8 1.2,-1.1c0.5,-0.3 1.1,-0.4 1.7,-0.4c1.1,0 2,0.3 2.5,0.8c0.6,0.5 0.8,1.4 0.8,2.6l0,6.1l-1.3,0zm8.1,0.2c-1.3,0 -2.4,-0.4 -3.1,-1.2c-0.7,-0.8 -1.1,-2 -1.1,-3.5c0,-1.6 0.4,-2.8 1.1,-3.6c0.8,-0.8 1.8,-1.3 3.2,-1.3c0.4,0 0.9,0 1.3,0.1c0.4,0.1 0.8,0.2 1,0.3l-0.4,1.2c-0.3,-0.1 -0.6,-0.2 -1,-0.3c-0.4,-0.1 -0.7,-0.1 -1,-0.1c-1.9,0 -2.8,1.2 -2.8,3.6c0,1.1 0.2,2 0.7,2.6c0.5,0.6 1.1,0.9 2,0.9c0.8,0 1.6,-0.2 2.4,-0.5l0,1.2c-0.6,0.4 -1.4,0.6 -2.3,0.6z" class="st1"/>
  <path id="svg_3" fill="#434468" d="m122.6,337l-3.3,0l-8,-12.9l-0.1,0l0.1,0.7c0.1,1.4 0.2,2.6 0.2,3.8l0,8.4l-2.5,0l0,-16.2l3.2,0l8,12.9l0.1,0c0,-0.2 0,-0.8 -0.1,-1.9c0,-1.1 -0.1,-1.9 -0.1,-2.5l0,-8.5l2.4,0l0,16.2l0.1,0zm16.2,0l-3.1,0l-5.1,-7.4l-1.6,1.3l0,6.1l-2.7,0l0,-16.2l2.7,0l0,7.8c0.7,-0.9 1.4,-1.7 2.2,-2.6l4.4,-5.2l3,0c-2.8,3.3 -4.9,5.7 -6.1,7.1l6.3,9.1zm10.9,0l-9.2,0l0,-16.2l9.2,0l0,2.2l-6.5,0l0,4.4l6.1,0l0,2.2l-6.1,0l0,5.1l6.5,0l0,2.3z" class="st2"/>
  <path id="svg_4" fill="#8F90A3" d="m142.4,488.5c0,1.4 -0.4,2.6 -1.1,3.4c-0.7,0.8 -1.7,1.2 -3.1,1.2c-1.3,0 -2.4,-0.4 -3.1,-1.2c-0.7,-0.8 -1.1,-1.9 -1.1,-3.4c0,-1.5 0.4,-2.6 1.1,-3.4c0.7,-0.8 1.8,-1.2 3.1,-1.2c1.3,0 2.3,0.4 3.1,1.2c0.8,0.8 1.1,1.9 1.1,3.4zm-6.7,0c0,1.1 0.2,1.9 0.7,2.5c0.4,0.6 1.1,0.8 2,0.8c0.9,0 1.5,-0.3 2,-0.8c0.4,-0.6 0.7,-1.4 0.7,-2.5c0,-1.1 -0.2,-1.9 -0.7,-2.5c-0.4,-0.6 -1.1,-0.8 -1.9,-0.8c-0.9,0 -1.5,0.3 -2,0.8c-0.6,0.6 -0.8,1.4 -0.8,2.5zm11.2,4.5c-1,0 -1.8,-0.3 -2.3,-0.9c-0.5,-0.6 -0.8,-1.4 -0.8,-2.6c0,-1.1 0.3,-2 0.8,-2.6c0.6,-0.6 1.4,-0.9 2.4,-0.9c0.7,0 1.3,0.1 1.9,0.4l-0.4,1.1c-0.6,-0.2 -1.1,-0.4 -1.5,-0.4c-1.2,0 -1.7,0.8 -1.7,2.3c0,0.8 0.1,1.3 0.4,1.7c0.3,0.4 0.7,0.6 1.3,0.6c0.6,0 1.2,-0.2 1.8,-0.5l0,1.2c-0.3,0.2 -0.5,0.3 -0.8,0.3c-0.3,0.3 -0.7,0.3 -1.1,0.3zm6,-1.1c0.3,0 0.7,-0.1 1,-0.2l0,1.1c-0.2,0.1 -0.4,0.1 -0.6,0.2c-0.2,0 -0.5,0.1 -0.8,0.1c-1.4,0 -2,-0.7 -2,-2.1l0,-3.6l-0.9,0l0,-0.6l1,-0.5l0.5,-1.4l0.9,0l0,1.5l1.9,0l0,1.1l-1.9,0l0,3.6c0,0.3 0.1,0.6 0.3,0.8c0.1,-0.1 0.3,0 0.6,0zm11.1,1l-6,0l0,-1.1l2.3,-2.3c0.7,-0.7 1.1,-1.2 1.3,-1.5c0.2,-0.3 0.4,-0.6 0.5,-0.8c0.1,-0.3 0.2,-0.5 0.2,-0.8c0,-0.4 -0.1,-0.7 -0.4,-0.9c-0.2,-0.2 -0.6,-0.3 -1,-0.3c-0.3,0 -0.7,0.1 -1,0.2c-0.3,0.1 -0.7,0.4 -1.1,0.7l-0.8,-0.9c0.5,-0.4 1,-0.7 1.4,-0.9c0.5,-0.2 1,-0.3 1.5,-0.3c0.8,0 1.5,0.2 2,0.7c0.5,0.4 0.7,1 0.7,1.7c0,0.4 -0.1,0.8 -0.2,1.1c-0.1,0.4 -0.4,0.7 -0.7,1.1c-0.3,0.4 -0.8,0.9 -1.5,1.5l-1.5,1.5l0,0.1l4.2,0l0,1.2l0.1,0zm7.2,-4.4c0,1.5 -0.2,2.7 -0.7,3.4c-0.5,0.8 -1.3,1.1 -2.3,1.1c-1,0 -1.7,-0.4 -2.2,-1.2c-0.5,-0.8 -0.8,-1.9 -0.8,-3.4c0,-1.6 0.2,-2.7 0.7,-3.5c0.5,-0.7 1.3,-1.1 2.3,-1.1c1,0 1.7,0.4 2.3,1.2c0.4,0.8 0.7,2 0.7,3.5zm-4.6,0c0,1.2 0.1,2.1 0.4,2.6c0.3,0.5 0.7,0.8 1.2,0.8s0.9,-0.3 1.2,-0.8c0.3,-0.5 0.4,-1.4 0.4,-2.6c0,-1.2 -0.1,-2.1 -0.4,-2.6c-0.3,-0.5 -0.7,-0.8 -1.2,-0.8s-0.9,0.3 -1.2,0.8c-0.3,0.5 -0.4,1.4 -0.4,2.6zm9.8,4.4l-1.4,0l0,-5.7c0,-0.7 0,-1.2 0,-1.6c-0.1,0.1 -0.2,0.2 -0.3,0.3c-0.1,0.1 -0.6,0.5 -1.4,1.1l-0.7,-0.9l2.6,-2.1l1.2,0l0,8.9zm6,-9c0.8,0 1.5,0.2 2,0.6c0.5,0.4 0.7,0.9 0.7,1.6c0,0.9 -0.5,1.6 -1.6,2.2c0.7,0.3 1.2,0.7 1.5,1.1c0.3,0.4 0.4,0.8 0.4,1.3c0,0.7 -0.3,1.3 -0.8,1.8c-0.5,0.4 -1.3,0.7 -2.2,0.7c-1,0 -1.7,-0.2 -2.2,-0.6c-0.5,-0.4 -0.8,-1 -0.8,-1.8c0,-0.5 0.1,-0.9 0.4,-1.3c0.3,-0.4 0.7,-0.7 1.4,-1.1c-0.5,-0.3 -0.9,-0.7 -1.2,-1c-0.2,-0.4 -0.3,-0.8 -0.3,-1.2c0,-0.6 0.3,-1.2 0.8,-1.5c0.4,-0.6 1,-0.8 1.9,-0.8zm-1.7,6.7c0,0.4 0.1,0.7 0.4,1c0.3,0.2 0.7,0.3 1.2,0.3c0.5,0 0.9,-0.1 1.2,-0.4c0.3,-0.2 0.4,-0.6 0.4,-1c0,-0.3 -0.1,-0.6 -0.4,-0.9c-0.3,-0.3 -0.7,-0.5 -1.2,-0.8l-0.2,-0.1c-0.5,0.2 -0.9,0.5 -1.2,0.8c-0.1,0.4 -0.2,0.8 -0.2,1.1zm1.6,-5.6c-0.4,0 -0.7,0.1 -1,0.3c-0.2,0.2 -0.4,0.5 -0.4,0.8c0,0.2 0,0.4 0.1,0.6c0.1,0.2 0.2,0.3 0.4,0.5c0.2,0.1 0.5,0.3 0.9,0.5c0.5,-0.2 0.8,-0.4 1,-0.7c0.2,-0.2 0.3,-0.5 0.3,-0.8c0,-0.3 -0.1,-0.6 -0.4,-0.8c-0.1,-0.3 -0.4,-0.4 -0.9,-0.4z" class="st1"/>
  <path id="svg_5" fill="#8F90A3" d="m249.4,495.4c-0.4,0 -0.7,-0.1 -1,-0.2l0,-1.2c0.3,0.1 0.6,0.1 0.9,0.1c0.8,0 1.2,-0.5 1.2,-1.5l0,-8.6l1.5,0l0,8.6c0,0.9 -0.2,1.6 -0.7,2.1c-0.4,0.5 -1,0.7 -1.9,0.7zm8.9,-2.5l-0.3,-0.9l0,0c-0.3,0.4 -0.7,0.7 -1,0.8c-0.3,0.1 -0.8,0.2 -1.3,0.2c-0.7,0 -1.2,-0.2 -1.6,-0.5c-0.4,-0.4 -0.6,-0.9 -0.6,-1.5c0,-0.7 0.3,-1.2 0.8,-1.6c0.5,-0.4 1.3,-0.5 2.4,-0.6l1.2,0l0,-0.4c0,-0.4 -0.1,-0.8 -0.3,-1c-0.2,-0.2 -0.5,-0.3 -0.9,-0.3c-0.3,0 -0.7,0.1 -1,0.2c-0.3,0.1 -0.6,0.2 -0.9,0.4l-0.5,-1c0.4,-0.2 0.8,-0.3 1.2,-0.4c0.4,-0.1 0.8,-0.2 1.2,-0.2c0.9,0 1.5,0.2 1.9,0.6c0.4,0.4 0.7,1 0.7,1.8l0,4.5l-1,0l0,-0.1zm-2.1,-1c0.5,0 0.9,-0.1 1.2,-0.4c0.3,-0.3 0.5,-0.7 0.5,-1.2l0,-0.6l-0.9,0c-0.7,0 -1.2,0.1 -1.5,0.3c-0.3,0.2 -0.5,0.5 -0.5,0.9c0,0.3 0.1,0.5 0.3,0.7c0.3,0.3 0.5,0.3 0.9,0.3zm11.1,1l-1.4,0l0,-4.1c0,-0.5 -0.1,-0.9 -0.3,-1.2c-0.2,-0.3 -0.5,-0.4 -1,-0.4c-0.6,0 -1,0.2 -1.3,0.5c-0.3,0.4 -0.4,1 -0.4,1.8l0,3.3l-1.4,0l0,-6.7l1.1,0l0.2,0.9l0.1,0c0.2,-0.3 0.5,-0.6 0.9,-0.7c0.4,-0.2 0.8,-0.3 1.2,-0.3c1.6,0 2.4,0.8 2.4,2.5l0,4.4l-0.1,0zm10.7,0l-6,0l0,-1.1l2.3,-2.3c0.7,-0.7 1.1,-1.2 1.3,-1.5c0.2,-0.3 0.4,-0.6 0.5,-0.8c0.1,-0.3 0.2,-0.5 0.2,-0.8c0,-0.4 -0.1,-0.7 -0.4,-0.9c-0.2,-0.2 -0.6,-0.3 -1,-0.3c-0.3,0 -0.7,0.1 -1,0.2c-0.3,0.1 -0.7,0.4 -1.1,0.7l-0.8,-0.9c0.5,-0.4 1,-0.7 1.4,-0.9c0.5,-0.2 1,-0.3 1.5,-0.3c0.8,0 1.5,0.2 2,0.7c0.5,0.4 0.7,1 0.7,1.7c0,0.4 -0.1,0.8 -0.2,1.1c-0.1,0.4 -0.4,0.7 -0.7,1.1c-0.3,0.4 -0.8,0.9 -1.5,1.5l-1.5,1.5l0,0.1l4.2,0l0,1.2l0.1,0zm7.1,-4.4c0,1.5 -0.2,2.7 -0.7,3.4c-0.5,0.8 -1.3,1.1 -2.3,1.1c-1,0 -1.7,-0.4 -2.2,-1.2s-0.8,-1.9 -0.8,-3.4c0,-1.6 0.2,-2.7 0.7,-3.5c0.5,-0.7 1.3,-1.1 2.3,-1.1c1,0 1.7,0.4 2.3,1.2c0.5,0.8 0.7,2 0.7,3.5zm-4.5,0c0,1.2 0.1,2.1 0.4,2.6c0.3,0.5 0.7,0.8 1.2,0.8c0.5,0 0.9,-0.3 1.2,-0.8c0.3,-0.5 0.4,-1.4 0.4,-2.6c0,-1.2 -0.1,-2.1 -0.4,-2.6c-0.3,-0.5 -0.7,-0.8 -1.2,-0.8c-0.5,0 -0.9,0.3 -1.2,0.8c-0.3,0.5 -0.4,1.4 -0.4,2.6zm9.8,4.4l-1.4,0l0,-5.7c0,-0.7 0,-1.2 0,-1.6c-0.1,0.1 -0.2,0.2 -0.3,0.3c-0.1,0.1 -0.6,0.5 -1.4,1.1l-0.7,-0.9l2.6,-2.1l1.2,0l0,8.9zm9,-5.1c0,1.8 -0.4,3.1 -1.1,3.9c-0.7,0.9 -1.8,1.3 -3.2,1.3c-0.5,0 -0.9,0 -1.2,-0.1l0,-1.2c0.4,0.1 0.7,0.2 1.1,0.2c1,0 1.7,-0.3 2.2,-0.8c0.5,-0.5 0.7,-1.3 0.8,-2.4l-0.1,0c-0.2,0.4 -0.5,0.6 -0.9,0.8c-0.3,0.2 -0.7,0.2 -1.2,0.2c-0.8,0 -1.4,-0.2 -1.9,-0.7c-0.4,-0.5 -0.7,-1.2 -0.7,-2c0,-0.9 0.3,-1.7 0.8,-2.2c0.5,-0.6 1.2,-0.8 2.1,-0.8c0.6,0 1.2,0.2 1.7,0.5c0.5,0.3 0.8,0.8 1.1,1.3c0.3,0.5 0.5,1.2 0.5,2zm-3.1,-2.7c-0.5,0 -0.9,0.2 -1.1,0.5c-0.3,0.3 -0.4,0.8 -0.4,1.4c0,0.5 0.1,0.9 0.4,1.2c0.2,0.3 0.6,0.4 1.1,0.4c0.5,0 0.9,-0.1 1.2,-0.4c0.3,-0.3 0.5,-0.6 0.5,-1c0,-0.4 -0.1,-0.7 -0.2,-1c-0.1,-0.3 -0.3,-0.6 -0.6,-0.7c-0.3,-0.3 -0.6,-0.4 -0.9,-0.4z" class="st1"/>
  <path id="svg_6" fill="#8F90A3" d="m383,492.9l-0.9,-2.5l-3.4,0l-0.9,2.5l-1.5,0l3.3,-8.9l1.6,0l3.3,8.9l-1.5,0zm-1.3,-3.7l-0.8,-2.4c-0.1,-0.2 -0.1,-0.4 -0.3,-0.8c-0.1,-0.3 -0.2,-0.6 -0.2,-0.8c-0.1,0.5 -0.3,1 -0.5,1.6l-0.8,2.3l2.6,0l0,0.1zm7.3,3.8c-0.8,0 -1.5,-0.3 -2,-0.9l-0.1,0c0.1,0.6 0.1,0.9 0.1,1l0,2.8l-1.4,0l0,-9.7l1.2,0c0,0.1 0.1,0.4 0.2,0.9l0.1,0c0.4,-0.7 1.1,-1 2,-1c0.8,0 1.5,0.3 2,0.9c0.5,0.6 0.7,1.5 0.7,2.6c0,1.1 -0.2,2 -0.7,2.6c-0.6,0.5 -1.3,0.8 -2.1,0.8zm-0.4,-5.8c-0.6,0 -1,0.2 -1.2,0.5c-0.3,0.3 -0.4,0.9 -0.4,1.6l0,0.2c0,0.8 0.1,1.4 0.4,1.8c0.3,0.4 0.7,0.5 1.3,0.5c0.5,0 0.9,-0.2 1.1,-0.6c0.3,-0.4 0.4,-1 0.4,-1.7c0,-0.8 -0.1,-1.3 -0.4,-1.7c-0.2,-0.4 -0.6,-0.6 -1.2,-0.6zm8.2,-1.1c0.3,0 0.5,0 0.7,0.1l-0.1,1.3c-0.2,0 -0.4,-0.1 -0.6,-0.1c-0.6,0 -1,0.2 -1.4,0.6c-0.4,0.4 -0.5,0.9 -0.5,1.5l0,3.5l-1.4,0l0,-6.7l1.1,0l0.2,1.2l0.1,0c0.2,-0.4 0.5,-0.7 0.9,-1c0.2,-0.3 0.5,-0.4 1,-0.4zm10.7,6.8l-6,0l0,-1.1l2.3,-2.3c0.7,-0.7 1.1,-1.2 1.3,-1.5c0.2,-0.3 0.4,-0.6 0.5,-0.8c0.1,-0.3 0.2,-0.5 0.2,-0.8c0,-0.4 -0.1,-0.7 -0.4,-0.9c-0.2,-0.2 -0.6,-0.3 -1,-0.3c-0.3,0 -0.7,0.1 -1,0.2c-0.3,0.1 -0.7,0.4 -1.1,0.7l-0.8,-0.9c0.5,-0.4 1,-0.7 1.4,-0.9c0.5,-0.2 1,-0.3 1.5,-0.3c0.8,0 1.5,0.2 2,0.7c0.5,0.4 0.7,1 0.7,1.7c0,0.4 -0.1,0.8 -0.2,1.1c-0.1,0.4 -0.4,0.7 -0.7,1.1c-0.3,0.4 -0.8,0.9 -1.5,1.5l-1.5,1.5l0,0.1l4.2,0l0,1.2l0.1,0zm7.1,-4.4c0,1.5 -0.2,2.7 -0.7,3.4c-0.5,0.8 -1.3,1.1 -2.3,1.1c-1,0 -1.7,-0.4 -2.2,-1.2c-0.5,-0.8 -0.8,-1.9 -0.8,-3.4c0,-1.6 0.2,-2.7 0.7,-3.5c0.5,-0.7 1.3,-1.1 2.3,-1.1c1,0 1.7,0.4 2.3,1.2c0.5,0.8 0.7,2 0.7,3.5zm-4.6,0c0,1.2 0.1,2.1 0.4,2.6c0.3,0.5 0.6,0.8 1.2,0.8c0.5,0 0.9,-0.3 1.2,-0.8c0.3,-0.5 0.4,-1.4 0.4,-2.6c0,-1.2 -0.1,-2.1 -0.4,-2.6c-0.3,-0.5 -0.7,-0.8 -1.2,-0.8c-0.5,0 -0.9,0.3 -1.2,0.8c-0.3,0.5 -0.4,1.4 -0.4,2.6zm9.9,4.4l-1.4,0l0,-5.7c0,-0.7 0,-1.2 0,-1.6c-0.1,0.1 -0.2,0.2 -0.3,0.3c-0.1,0.1 -0.6,0.5 -1.4,1.1l-0.7,-0.9l2.6,-2.1l1.2,0l0,8.9zm8.9,-5.1c0,1.8 -0.4,3.1 -1.1,3.9c-0.7,0.9 -1.8,1.3 -3.2,1.3c-0.5,0 -0.9,0 -1.2,-0.1l0,-1.2c0.4,0.1 0.7,0.2 1.1,0.2c1,0 1.7,-0.3 2.2,-0.8c0.5,-0.5 0.7,-1.3 0.8,-2.4l-0.1,0c-0.2,0.4 -0.5,0.6 -0.9,0.8c-0.3,0.2 -0.7,0.2 -1.2,0.2c-0.8,0 -1.4,-0.2 -1.9,-0.7c-0.5,-0.5 -0.7,-1.2 -0.7,-2c0,-0.9 0.3,-1.7 0.8,-2.2c0.5,-0.6 1.2,-0.8 2.1,-0.8c0.6,0 1.2,0.2 1.7,0.5c0.5,0.3 0.8,0.8 1.1,1.3c0.4,0.5 0.5,1.2 0.5,2zm-3.1,-2.7c-0.5,0 -0.9,0.2 -1.1,0.5c-0.3,0.3 -0.4,0.8 -0.4,1.4c0,0.5 0.1,0.9 0.4,1.2c0.2,0.3 0.6,0.4 1.1,0.4c0.5,0 0.9,-0.1 1.2,-0.4c0.3,-0.3 0.5,-0.6 0.5,-1c0,-0.4 -0.1,-0.7 -0.2,-1c-0.1,-0.3 -0.3,-0.6 -0.6,-0.7c-0.3,-0.3 -0.6,-0.4 -0.9,-0.4z" class="st1"/>
  <path stroke="null" id="svg_7" fill-opacity="0.2" fill="url(#svg_68)" d="m85.2,427.89302c3.9,-0.74401 6.9,-1.41362 11.5,-2.08323c1.3,-0.2232 1.3,0.2976 2,0.37201c0,0 0.5,-0.52081 1.4,-0.0744c0.1,0.0744 6.7,1.26482 8.5,0.59521c0.5,-0.2232 0.7,-1.19042 1.8,-0.66961c1,0.52081 1.8,0.0744 3.5,0.2232c1.5,0.1488 3.4,-1.48802 3.6,-1.63682c1.3,-1.04162 0.6,-0.74401 3.7,0c0.9,0.2232 4,0.2976 4,0.37201c0.1,0.1488 0.7,1.41362 2,1.26482c1.5,-0.2232 3.4,-0.44641 4.2,-0.66961c1.3,-0.44641 1.1,-1.78563 2.2,-1.33922c0.5,0.2232 2.6,1.48802 5.3,1.04162c4.6,-0.66961 2.2,-0.1488 7.6,0.1488c3.7,0.1488 5.9,-0.89281 8,-0.74401c2.5,0.1488 1.6,1.63682 2.6,0.1488c0.9,-1.48802 -0.3,-1.63682 1.8,-3.19925c0.8,-0.59521 2.1,-0.1488 3.1,0.0744c1.3,0.37201 7.9,-1.41362 8.4,-1.56242c3.1,-0.89281 1.7,0 4,0.52081c2.7,0.66961 11.3,-1.48802 12.5,-1.71123c5.2,-1.04162 2.2,1.19042 2.4,1.56242c0.1,0.37201 -0.2,2.75284 5.2,1.48802c1.1,-0.2976 2.9,1.19042 3.3,1.41362c2.5,1.19042 4.2,-0.44641 5.5,-0.74401c2.3,-0.59521 3.5,1.26482 5.6,1.86003c2.5,0.74401 6.1,-1.19042 6.8,-1.48802c1.2,-0.52081 -0.2,0.44641 1.1,-0.0744c1.3,-0.44641 2,-2.67844 5.3,-2.82724c1.5,-0.0744 1.5,1.04162 2.7,1.04162c2.7,0 2.2,-1.26482 4.4,-0.59521c0.6,0.2232 4.8,1.78563 6.9,1.71123c2,-0.0744 9.4,-1.86003 10.1,-1.63682c0.5,0.2232 2.4,1.86003 4,1.63682c3.3,-0.37201 6.4,-2.00883 11.8,-1.19042c2.6,0.37201 3.5,0.89281 7.6,0.59521c1.7,-0.0744 3.7,1.11602 4.9,1.26482c2.2,0.37201 6.9,-0.74401 7.7,-0.96721c3,-0.59521 0.6,0.2976 2.9,-0.0744c4.2,-0.59521 5,-1.48802 9,-2.08323c2.6,-0.37201 0.8,0.89281 2.8,0.81841c3.2,-0.0744 7.2,-1.11602 10.6,-0.96721c2.3,0.0744 0.2,0.96721 3.7,1.04162c2.9,0 5,-0.59521 7.6,-0.1488c3,0.52081 1.7,0.59521 6,0.1488l0.1,0c2.1,-0.2232 10.3,-1.19042 13.2,-0.89281c2.4,0.2232 2.2,1.48802 6.8,0.96721c3.6,-0.44641 8.1,-1.04162 10.4,-1.63682c0.2,-0.0744 0.4,-0.0744 0.3,-0.0744c-0.1,0 -0.2,0.0744 -0.3,0.0744c-0.2,0.0744 -0.4,0.0744 -0.4,0.1488c-0.3,0.2232 1.5,-0.0744 1.8,-0.0744c2.6,-0.2976 12,-1.48802 15.6,-1.26482c4.6,0.2232 0.3,0.74401 7.6,0c4.9,-0.52081 7.5,-3.19925 9.4,-2.23203c2.2,1.11602 7.2,-3.12485 12.4,-3.57125c4.7,-0.44641 10,8.40732 12.4,9.07693c3.3,0.96721 3.3,-2.82724 7.5,-3.49685c9,1.56242 8.7,-1.41362 9,-1.26482c1.3,0.44641 7,3.05044 9.6,3.42245c6,0.89281 6.5,-1.93443 14.2,-1.93443c3.2,0 1.7,0.44641 6.1,0c1.1,-0.0744 1.8,-0.2232 3.1,-0.2232l0,49.62553l-378,0l0,-39.50698l-0.4,0z" class="st3"/>
  <path id="svg_8" stroke-linejoin="round" stroke-linecap="round" stroke-width="2.1185" stroke="url(#SVGID_2_)" fill="none" d="m85.2,434c3.9,-1 6.9,-2 11.5,-2.9c1.3,-0.3 1.3,0.4 2,0.5c0,0 0.5,-0.7 1.4,-0.1c0.1,0.1 6.7,1.7 8.5,0.8c0.5,-0.3 0.7,-1.6 1.8,-0.9c1,0.7 1.8,0.1 3.5,0.3c1.5,0.2 3.4,-2.1 3.6,-2.3c1.3,-1.5 0.6,-1 3.7,0c0.9,0.3 4,0.4 4,0.5c0.1,0.2 0.7,2 2,1.8c1.5,-0.3 3.4,-0.6 4.2,-1c1.3,-0.6 1.1,-2.5 2.2,-1.9c0.5,0.3 2.6,2.1 5.3,1.5c4.6,-1 2.2,-0.2 7.6,0.2c3.7,0.3 5.9,-1.3 8,-1c2.5,0.2 1.6,2.3 2.6,0.2c0.9,-2 -0.3,-2.3 1.8,-4.4c0.8,-0.8 2.1,-0.2 3.1,0.1c1.3,0.5 7.9,-1.9 8.4,-2.1c3.1,-1.2 1.7,0 4,0.7c2.7,1 11.3,-2.1 12.5,-2.4c5.2,-1.5 2.2,1.7 2.4,2.2c0.1,0.5 -0.2,3.9 5.2,2.1c1.1,-0.4 2.9,1.7 3.3,1.9c2.5,1.7 4.2,-0.6 5.5,-1.1c2.3,-0.8 3.5,1.8 5.6,2.6c2.5,1 6.1,-1.7 6.8,-2.1c1.2,-0.7 -0.2,0.6 1.1,-0.1c1.3,-0.7 2,-3.7 5.3,-4c1.5,-0.1 1.5,1.4 2.7,1.4c2.7,0 2.2,-1.7 4.4,-0.8c0.6,0.3 4.8,2.5 6.9,2.4c2,-0.1 9.4,-2.6 10.1,-2.3c0.5,0.3 2.4,2.6 4,2.3c3.3,-0.6 6.4,-2.8 11.8,-1.6c2.6,0.6 3.5,1.2 7.6,0.8c1.7,-0.1 3.7,1.5 4.9,1.8c2.2,0.5 6.9,-1.1 7.7,-1.3c3,-0.9 0.6,0.4 2.9,-0.1c4.2,-0.8 5,-2.1 9,-2.9c2.6,-0.5 0.8,1.2 2.8,1.1c3.2,-0.1 7.2,-1.5 10.6,-1.4c2.3,0.1 0.2,1.4 3.7,1.4c2.9,0 5,-0.9 7.6,-0.2c3,0.7 1.7,0.9 6,0.2c1.8,-0.3 10.4,-1.7 13.4,-1.3c2.4,0.3 2.2,2.1 6.8,1.3c3.7,-0.6 8.5,-1.5 10.7,-2.3c0.3,-0.1 -0.6,0.2 -0.7,0.3c-0.3,0.3 1.5,-0.1 1.8,-0.1c2.6,-0.4 12,-2 15.6,-1.8c4.6,0.4 0.3,1 7.6,0c4.9,-0.7 7.5,-4.5 9.4,-3.1c2.2,1.5 7.2,-4.4 12.4,-5c4.7,-0.6 10,11.7 12.4,12.6c3.3,1.4 3.3,-3.9 7.5,-4.8c9,2.1 8.7,-2 9,-1.8c1.3,0.6 7,4.2 9.6,4.7c6,1.2 6.5,-2.7 14.2,-2.7c3.2,0 1.7,0.6 6.1,0c1.1,-0.1 1.8,-0.3 3.1,-0.3" class="st4"/>
  <path id="svg_9" fill="#5AC5A1" d="m402.8,366.1l-3.2,0l0,-1.4l3.2,0l0,-3.3l1.4,0l0,3.3l3.2,0l0,1.4l-3.2,0l0,3.3l-1.4,0l0,-3.3zm11.8,5.1l-1.9,0l0,-7.6c0,-0.9 0,-1.6 0.1,-2.2c-0.1,0.1 -0.3,0.3 -0.5,0.4c-0.2,0.2 -0.8,0.6 -1.8,1.5l-0.9,-1.2l3.5,-2.7l1.6,0l0,11.8l-0.1,0zm4.2,-1c0,-0.4 0.1,-0.7 0.3,-0.9c0.2,-0.2 0.5,-0.3 0.9,-0.3c0.4,0 0.7,0.1 0.9,0.3c0.2,0.2 0.3,0.5 0.3,0.9c0,0.4 -0.1,0.7 -0.3,0.9c-0.2,0.2 -0.5,0.3 -0.9,0.3c-0.4,0 -0.7,-0.1 -0.9,-0.3c-0.2,-0.3 -0.3,-0.6 -0.3,-0.9zm12.1,-5.8c0,2.3 -0.5,4 -1.4,5.2c-0.9,1.1 -2.3,1.7 -4.2,1.7c-0.7,0 -1.2,0 -1.5,-0.1l0,-1.6c0.5,0.1 1,0.2 1.4,0.2c1.3,0 2.2,-0.3 2.9,-1c0.6,-0.7 1,-1.8 1,-3.2l-0.1,0c-0.3,0.5 -0.7,0.8 -1.2,1c-0.4,0.2 -1,0.3 -1.6,0.3c-1,0 -1.9,-0.3 -2.5,-1c-0.6,-0.6 -0.9,-1.5 -0.9,-2.7c0,-1.2 0.3,-2.2 1,-2.9c0.7,-0.7 1.6,-1.1 2.8,-1.1c0.8,0 1.6,0.2 2.2,0.6c0.6,0.4 1.1,1 1.4,1.8c0.5,0.8 0.7,1.7 0.7,2.8zm-4.1,-3.6c-0.7,0 -1.2,0.2 -1.5,0.6c-0.3,0.4 -0.5,1 -0.5,1.8c0,0.7 0.2,1.2 0.5,1.6c0.3,0.4 0.8,0.6 1.5,0.6c0.6,0 1.2,-0.2 1.6,-0.6c0.4,-0.4 0.7,-0.8 0.7,-1.3c0,-0.5 -0.1,-0.9 -0.3,-1.3c-0.2,-0.4 -0.4,-0.7 -0.8,-1c-0.4,-0.3 -0.8,-0.4 -1.2,-0.4zm6.9,10.4l4.6,-10.1l-6.1,0l0,-1.7l8.1,0l0,1.3l-4.6,10.4l-2,0l0,0.1z" class="st5"/>
  <path id="svg_10" fill="#434468" d="m378.5,322.8c1.9,0 3.4,0.4 4.5,1.3c1.1,0.9 1.7,2 1.7,3.5c0,2.1 -1.2,3.7 -3.7,4.9c1.6,0.8 2.7,1.6 3.3,2.5c0.7,0.9 1,1.8 1,2.9c0,1.6 -0.6,3 -1.8,4c-1.2,1 -2.9,1.5 -4.9,1.5c-2.2,0 -3.9,-0.5 -5,-1.4c-1.2,-0.9 -1.8,-2.2 -1.8,-4c0,-1.1 0.3,-2.1 0.9,-3c0.6,-0.9 1.7,-1.7 3.1,-2.4c-1.2,-0.7 -2.1,-1.5 -2.6,-2.3c-0.5,-0.8 -0.8,-1.7 -0.8,-2.7c0,-1.4 0.6,-2.6 1.7,-3.5c1,-0.8 2.5,-1.3 4.4,-1.3zm-3.7,15.1c0,0.9 0.3,1.7 1,2.2c0.7,0.5 1.6,0.8 2.7,0.8c1.2,0 2.1,-0.3 2.7,-0.8c0.7,-0.5 1,-1.3 1,-2.2c0,-0.7 -0.3,-1.4 -0.9,-2c-0.6,-0.6 -1.5,-1.2 -2.7,-1.7l-0.4,-0.2c-1.2,0.5 -2.1,1.1 -2.6,1.8c-0.6,0.6 -0.8,1.3 -0.8,2.1zm3.6,-12.6c-0.9,0 -1.6,0.2 -2.2,0.7c-0.6,0.4 -0.8,1.1 -0.8,1.8c0,0.5 0.1,0.9 0.3,1.3c0.2,0.4 0.5,0.7 0.9,1c0.4,0.3 1,0.7 1.9,1.1c1.1,-0.5 1.9,-1 2.3,-1.5c0.5,-0.5 0.7,-1.2 0.7,-1.9c0,-0.8 -0.3,-1.4 -0.8,-1.8c-0.6,-0.4 -1.3,-0.7 -2.3,-0.7zm22.6,7.8c0,3.5 -0.6,6.1 -1.7,7.7c-1.1,1.7 -2.8,2.5 -5.1,2.5c-2.2,0 -3.9,-0.9 -5.1,-2.6c-1.1,-1.7 -1.7,-4.3 -1.7,-7.7c0,-3.5 0.6,-6.1 1.7,-7.8c1.1,-1.7 2.8,-2.5 5.1,-2.5c2.2,0 3.9,0.9 5.1,2.6c1.1,1.9 1.7,4.4 1.7,7.8zm-10.3,0c0,2.7 0.3,4.7 0.8,5.8c0.6,1.2 1.5,1.8 2.7,1.8c1.2,0 2.1,-0.6 2.7,-1.8c0.6,-1.2 0.9,-3.1 0.9,-5.8c0,-2.7 -0.3,-4.6 -0.9,-5.8c-0.6,-1.2 -1.5,-1.8 -2.7,-1.8c-1.2,0 -2.1,0.6 -2.7,1.8c-0.6,1.1 -0.8,3.1 -0.8,5.8zm13,8.3c0,-0.7 0.2,-1.2 0.5,-1.5c0.3,-0.4 0.8,-0.5 1.5,-0.5c0.7,0 1.2,0.2 1.5,0.6c0.3,0.4 0.5,0.9 0.5,1.5c0,0.6 -0.2,1.2 -0.5,1.5c-0.3,0.4 -0.8,0.6 -1.5,0.6c-0.7,0 -1.2,-0.2 -1.5,-0.6c-0.3,-0.4 -0.5,-1 -0.5,-1.6zm20.4,-9.8c0,3.9 -0.8,6.9 -2.4,8.8c-1.6,1.9 -4,2.9 -7.2,2.9c-1.2,0 -2.1,-0.1 -2.6,-0.2l0,-2.7c0.8,0.2 1.6,0.3 2.4,0.3c2.2,0 3.8,-0.6 4.9,-1.8c1.1,-1.2 1.6,-3 1.8,-5.5l-0.2,0c-0.5,0.8 -1.2,1.4 -2,1.8c-0.8,0.4 -1.6,0.5 -2.7,0.5c-1.8,0 -3.2,-0.6 -4.2,-1.7c-1,-1.1 -1.5,-2.6 -1.5,-4.5c0,-2.1 0.6,-3.7 1.8,-5c1.2,-1.2 2.8,-1.9 4.8,-1.9c1.4,0 2.7,0.3 3.7,1c1.1,0.7 1.9,1.7 2.4,3c0.7,1.6 1,3.2 1,5zm-7,-6.1c-1.1,0 -2,0.4 -2.6,1.1c-0.6,0.7 -0.9,1.7 -0.9,3c0,1.1 0.3,2 0.8,2.7c0.6,0.6 1.4,1 2.5,1c1.1,0 2,-0.3 2.7,-1c0.7,-0.6 1.1,-1.4 1.1,-2.3c0,-0.8 -0.2,-1.6 -0.5,-2.3c-0.3,-0.7 -0.7,-1.3 -1.3,-1.7c-0.4,-0.3 -1,-0.5 -1.8,-0.5zm23.5,13.2l-2.7,0l0,4.4l-3.1,0l0,-4.4l-9.1,0l0,-2.5l9.1,-13.2l3.1,0l0,13l2.7,0l0,2.7zm-5.9,-2.6l0,-5c0,-1.8 0,-3.2 0.1,-4.4l-0.1,0c-0.3,0.6 -0.7,1.3 -1.2,2.2l-5,7.2l6.2,0z" class="st2"/>
  <line id="svg_11" stroke-opacity="0.27" stroke-width="1.1769" stroke="#A0B1C6" fill="none" y2="473.8" x2="159.9" y1="458.7" x1="159.9" class="st6"/>
  <line id="svg_12" stroke-opacity="0.27" stroke-width="1.1769" stroke="#A0B1C6" fill="none" y2="473.8" x2="274.9" y1="458.7" x1="274.9" class="st6"/>
  <line id="svg_13" stroke-opacity="0.27" stroke-width="1.1769" stroke="#A0B1C6" fill="none" y2="473.8" x2="403.1" y1="458.7" x1="403.1" class="st6"/>
  <g id="svg_14">
   <path id="svg_15" fill="#FFFFFF" clip-rule="evenodd" fill-rule="evenodd" d="m61.1,28.1c-3.4,0 -6.2,2.8 -6.2,6.2l-0.1,165.7c0,3.4 2.8,6.2 6.2,6.2l90.9,0c0.8,0 1.6,0.3 2.1,0.9l8.5,8.2c1.2,1.2 3.1,1.2 4.3,0l8.5,-8.2c0.6,-0.6 1.3,-0.9 2.2,-0.9l70.6,0c3.4,0 6.2,-2.8 6.2,-6.2l0.1,-165.7c0,-3.4 -2.8,-6.2 -6.2,-6.2l-187.1,0z" class="st7"/>
  </g>
  <path id="svg_16" fill="#8F90A3" d="m76.2,76.2l-3.4,-8.8l-0.1,0c0.1,0.7 0.1,1.5 0.1,2.5l0,6.3l-1.1,0l0,-10l1.7,0l3.2,8.2l0.1,0l3.2,-8.2l1.7,0l0,10l-1.2,0l0,-6.4c0,-0.7 0,-1.5 0.1,-2.4l-0.1,0l-3.4,8.8l-0.8,0zm9.2,0l-1.1,0l0,-7.5l1.1,0l0,7.5zm-1.2,-9.5c0,-0.3 0.1,-0.4 0.2,-0.6c0.1,-0.1 0.3,-0.2 0.5,-0.2c0.2,0 0.3,0.1 0.5,0.2c0.1,0.1 0.2,0.3 0.2,0.6c0,0.3 -0.1,0.4 -0.2,0.6c-0.1,0.1 -0.3,0.2 -0.5,0.2c-0.2,0 -0.4,-0.1 -0.5,-0.2c-0.2,-0.1 -0.2,-0.3 -0.2,-0.6zm6.6,9.7c-1.1,0 -1.9,-0.3 -2.5,-1c-0.6,-0.7 -0.9,-1.6 -0.9,-2.8c0,-1.3 0.3,-2.2 0.9,-2.9c0.6,-0.7 1.5,-1 2.6,-1c0.4,0 0.7,0 1.1,0.1c0.4,0.1 0.6,0.2 0.8,0.3l-0.3,1c-0.2,-0.1 -0.5,-0.2 -0.8,-0.2c-0.3,-0.1 -0.6,-0.1 -0.8,-0.1c-1.5,0 -2.3,1 -2.3,2.9c0,0.9 0.2,1.6 0.6,2.1c0.4,0.5 0.9,0.7 1.7,0.7c0.6,0 1.3,-0.1 1.9,-0.4l0,1c-0.6,0.1 -1.3,0.3 -2,0.3zm7.1,-7.8c0.3,0 0.6,0 0.9,0.1l-0.2,1.1c-0.3,-0.1 -0.6,-0.1 -0.8,-0.1c-0.6,0 -1.1,0.2 -1.6,0.7c-0.4,0.5 -0.6,1.1 -0.6,1.8l0,4l-1.1,0l0,-7.5l0.9,0l0.1,1.4l0.1,0c0.3,-0.5 0.6,-0.9 1,-1.1c0.4,-0.2 0.8,-0.4 1.3,-0.4zm8.7,3.9c0,1.2 -0.3,2.2 -0.9,2.9c-0.6,0.7 -1.5,1 -2.5,1c-0.7,0 -1.3,-0.2 -1.8,-0.5c-0.5,-0.3 -0.9,-0.8 -1.2,-1.4c-0.3,-0.6 -0.4,-1.3 -0.4,-2.1c0,-1.2 0.3,-2.2 0.9,-2.8c0.6,-0.7 1.5,-1 2.5,-1c1,0 1.9,0.3 2.5,1c0.6,0.8 0.9,1.7 0.9,2.9zm-5.7,0c0,1 0.2,1.7 0.6,2.2c0.4,0.5 0.9,0.8 1.7,0.8c0.7,0 1.3,-0.2 1.7,-0.7c0.4,-0.5 0.6,-1.2 0.6,-2.2c0,-1 -0.2,-1.7 -0.6,-2.2c-0.4,-0.5 -0.9,-0.7 -1.7,-0.7c-0.7,0 -1.3,0.2 -1.7,0.7c-0.4,0.4 -0.6,1.1 -0.6,2.1zm12.5,1.7c0,0.7 -0.3,1.2 -0.8,1.6c-0.5,0.4 -1.2,0.6 -2.2,0.6c-1,0 -1.8,-0.2 -2.3,-0.5l0,-1.1c0.4,0.2 0.7,0.3 1.2,0.4c0.4,0.1 0.8,0.2 1.2,0.2c0.6,0 1,-0.1 1.4,-0.3c0.3,-0.2 0.5,-0.5 0.5,-0.9c0,-0.3 -0.1,-0.5 -0.4,-0.7c-0.3,-0.2 -0.7,-0.5 -1.5,-0.7c-0.7,-0.3 -1.2,-0.5 -1.5,-0.7c-0.3,-0.2 -0.5,-0.4 -0.7,-0.7c-0.1,-0.2 -0.2,-0.5 -0.2,-0.9c0,-0.6 0.2,-1.1 0.7,-1.4c0.5,-0.4 1.2,-0.5 2,-0.5c0.8,0 1.6,0.2 2.4,0.5l-0.4,0.9c-0.7,-0.3 -1.4,-0.5 -2,-0.5c-0.5,0 -0.9,0.1 -1.2,0.3c-0.3,0.2 -0.4,0.4 -0.4,0.7c0,0.2 0.1,0.4 0.2,0.5c0.1,0.1 0.3,0.3 0.5,0.4c0.2,0.1 0.7,0.3 1.3,0.6c0.9,0.3 1.5,0.6 1.8,1c0.3,0.3 0.4,0.7 0.4,1.2zm8.3,-1.7c0,1.2 -0.3,2.2 -0.9,2.9c-0.6,0.7 -1.5,1 -2.5,1c-0.7,0 -1.3,-0.2 -1.8,-0.5c-0.5,-0.3 -0.9,-0.8 -1.2,-1.4c-0.3,-0.6 -0.4,-1.3 -0.4,-2.1c0,-1.2 0.3,-2.2 0.9,-2.8c0.6,-0.7 1.5,-1 2.5,-1c1,0 1.9,0.3 2.5,1c0.6,0.8 0.9,1.7 0.9,2.9zm-5.7,0c0,1 0.2,1.7 0.6,2.2c0.4,0.5 0.9,0.8 1.7,0.8c0.7,0 1.3,-0.2 1.7,-0.7c0.4,-0.5 0.6,-1.2 0.6,-2.2c0,-1 -0.2,-1.7 -0.6,-2.2c-0.4,-0.5 -0.9,-0.7 -1.7,-0.7c-0.7,0 -1.3,0.2 -1.7,0.7c-0.4,0.4 -0.6,1.1 -0.6,2.1zm11.1,-2.8l-1.9,0l0,6.6l-1.1,0l0,-6.6l-1.3,0l0,-0.5l1.3,-0.4l0,-0.4c0,-1.8 0.8,-2.8 2.4,-2.8c0.4,0 0.9,0.1 1.4,0.2l-0.3,0.9c-0.4,-0.1 -0.8,-0.2 -1.1,-0.2c-0.4,0 -0.7,0.1 -0.9,0.4c-0.2,0.3 -0.3,0.7 -0.3,1.4l0,0.5l1.9,0l-0.1,0.9zm3.8,5.8c0.2,0 0.4,0 0.6,0c0.2,0 0.3,-0.1 0.4,-0.1l0,0.9c-0.1,0.1 -0.3,0.1 -0.5,0.1c-0.2,0 -0.4,0.1 -0.6,0.1c-1.4,0 -2.2,-0.8 -2.2,-2.3l0,-4.5l-1.1,0l0,-0.5l1.1,-0.5l0.4,-1.7l0.7,0l0,1.7l2.2,0l0,0.9l-2.2,0l0,4.4c0,0.5 0.1,0.8 0.3,1c0.2,0.3 0.5,0.5 0.9,0.5zm10.6,-8.3c-1.1,0 -2,0.4 -2.6,1.1c-0.6,0.7 -1,1.7 -0.9,3c0,1.3 0.3,2.3 0.9,3c0.6,0.7 1.5,1.1 2.6,1.1c0.7,0 1.5,-0.1 2.4,-0.4l0,1c-0.7,0.3 -1.5,0.4 -2.6,0.4c-1.5,0 -2.6,-0.4 -3.4,-1.3c-0.8,-0.9 -1.2,-2.2 -1.2,-3.8c0,-1 0.2,-1.9 0.6,-2.7c0.4,-0.8 0.9,-1.4 1.7,-1.8c0.7,-0.4 1.6,-0.6 2.6,-0.6c1,0 2,0.2 2.7,0.6l-0.5,1c-0.8,-0.4 -1.5,-0.6 -2.3,-0.6zm10.8,5.3c0,1.2 -0.3,2.2 -0.9,2.9c-0.6,0.7 -1.5,1 -2.5,1c-0.7,0 -1.3,-0.2 -1.8,-0.5c-0.5,-0.3 -0.9,-0.8 -1.2,-1.4c-0.3,-0.6 -0.4,-1.3 -0.4,-2.1c0,-1.2 0.3,-2.2 0.9,-2.8c0.6,-0.7 1.5,-1 2.5,-1c1,0 1.9,0.3 2.5,1c0.6,0.8 0.9,1.7 0.9,2.9zm-5.7,0c0,1 0.2,1.7 0.6,2.2c0.4,0.5 0.9,0.8 1.7,0.8c0.7,0 1.3,-0.2 1.7,-0.7c0.4,-0.5 0.6,-1.2 0.6,-2.2c0,-1 -0.2,-1.7 -0.6,-2.2c-0.4,-0.5 -0.9,-0.7 -1.7,-0.7c-0.7,0 -1.3,0.2 -1.7,0.7c-0.4,0.4 -0.6,1.2 -0.6,2.1zm11.1,-3.8c0.3,0 0.6,0 0.9,0.1l-0.2,1.1c-0.3,-0.1 -0.6,-0.1 -0.8,-0.1c-0.6,0 -1.1,0.2 -1.6,0.7c-0.4,0.5 -0.6,1.1 -0.6,1.8l0,4l-1.1,0l0,-7.5l0.9,0l0.1,1.4l0.1,0c0.3,-0.5 0.6,-0.9 1,-1.1c0.4,-0.3 0.9,-0.4 1.3,-0.4zm5.8,7.7c-0.5,0 -0.9,-0.1 -1.3,-0.3c-0.4,-0.2 -0.7,-0.5 -1,-0.8l-0.1,0c0.1,0.4 0.1,0.9 0.1,1.2l0,3.1l-1.1,0l0,-10.8l0.9,0l0.2,1l0.1,0c0.3,-0.4 0.6,-0.7 1,-0.9c0.4,-0.2 0.8,-0.3 1.3,-0.3c1,0 1.8,0.3 2.3,1c0.5,0.7 0.8,1.6 0.8,2.9c0,1.2 -0.3,2.2 -0.8,2.9c-0.7,0.7 -1.4,1 -2.4,1zm-0.1,-6.8c-0.8,0 -1.3,0.2 -1.7,0.6c-0.3,0.4 -0.5,1.1 -0.5,2l0,0.3c0,1.1 0.2,1.8 0.5,2.3c0.4,0.5 0.9,0.7 1.7,0.7c0.6,0 1.2,-0.3 1.5,-0.8c0.4,-0.5 0.6,-1.2 0.6,-2.2c0,-0.9 -0.2,-1.6 -0.6,-2.1c-0.4,-0.5 -0.9,-0.8 -1.5,-0.8zm11.7,2.9c0,1.2 -0.3,2.2 -0.9,2.9c-0.6,0.7 -1.5,1 -2.5,1c-0.7,0 -1.3,-0.2 -1.8,-0.5c-0.5,-0.3 -0.9,-0.8 -1.2,-1.4c-0.3,-0.6 -0.4,-1.3 -0.4,-2.1c0,-1.2 0.3,-2.2 0.9,-2.8c0.6,-0.7 1.5,-1 2.5,-1c1,0 1.9,0.3 2.5,1c0.6,0.8 0.9,1.7 0.9,2.9zm-5.7,0c0,1 0.2,1.7 0.6,2.2s0.9,0.8 1.7,0.8c0.7,0 1.3,-0.2 1.7,-0.7c0.4,-0.5 0.6,-1.2 0.6,-2.2c0,-1 -0.2,-1.7 -0.6,-2.2c-0.4,-0.5 -0.9,-0.7 -1.7,-0.7c-0.7,0 -1.3,0.2 -1.7,0.7c-0.4,0.4 -0.6,1.2 -0.6,2.1zm11.1,-3.8c0.3,0 0.6,0 0.9,0.1l-0.2,1.1c-0.3,-0.1 -0.6,-0.1 -0.8,-0.1c-0.6,0 -1.1,0.2 -1.6,0.7c-0.4,0.5 -0.6,1.1 -0.6,1.8l0,4l-1.1,0l0,-7.5l0.9,0l0.1,1.4l0.1,0c0.3,-0.5 0.6,-0.9 1,-1.1c0.4,-0.3 0.8,-0.4 1.3,-0.4zm6.9,7.6l-0.2,-1.1l-0.1,0c-0.4,0.5 -0.7,0.8 -1.1,1c-0.4,0.2 -0.8,0.2 -1.4,0.2c-0.7,0 -1.3,-0.2 -1.7,-0.6c-0.4,-0.4 -0.6,-0.9 -0.6,-1.6c0,-1.5 1.2,-2.3 3.6,-2.4l1.3,0l0,-0.5c0,-0.6 -0.1,-1 -0.4,-1.3c-0.2,-0.3 -0.7,-0.4 -1.2,-0.4c-0.6,0 -1.3,0.2 -2.1,0.6l-0.3,-0.9c0.4,-0.2 0.8,-0.4 1.2,-0.5c0.4,-0.1 0.9,-0.2 1.3,-0.2c0.9,0 1.6,0.2 2,0.6c0.4,0.4 0.6,1 0.6,1.9l0,5.1l-0.9,0.1zm-2.6,-0.8c0.7,0 1.3,-0.2 1.7,-0.6c0.4,-0.4 0.6,-0.9 0.6,-1.6l0,-0.7l-1.1,0c-0.9,0 -1.6,0.2 -2,0.4c-0.4,0.2 -0.6,0.6 -0.6,1.2c0,0.4 0.1,0.7 0.4,0.9c0.2,0.3 0.6,0.4 1,0.4zm8.2,0c0.2,0 0.4,0 0.6,0c0.2,0 0.3,-0.1 0.4,-0.1l0,0.9c-0.1,0.1 -0.3,0.1 -0.5,0.1c-0.2,0 -0.5,0.1 -0.6,0.1c-1.4,0 -2.2,-0.8 -2.2,-2.3l0,-4.5l-1.1,0l0,-0.5l1.1,-0.5l0.5,-1.6l0.7,0l0,1.7l2.2,0l0,0.9l-2.2,0l0,4.4c0,0.5 0.1,0.8 0.3,1c0.1,0.3 0.4,0.4 0.8,0.4zm3.6,0.8l-1.1,0l0,-7.5l1.1,0l0,7.5zm-1.2,-9.5c0,-0.3 0.1,-0.4 0.2,-0.6c0.1,-0.1 0.3,-0.2 0.5,-0.2c0.2,0 0.3,0.1 0.5,0.2c0.1,0.1 0.2,0.3 0.2,0.6c0,0.3 -0.1,0.4 -0.2,0.6c-0.1,0.1 -0.3,0.2 -0.5,0.2c-0.2,0 -0.4,-0.1 -0.5,-0.2c-0.1,-0.2 -0.2,-0.4 -0.2,-0.6zm10.1,5.7c0,1.2 -0.3,2.2 -0.9,2.9c-0.6,0.7 -1.5,1 -2.5,1c-0.7,0 -1.3,-0.2 -1.8,-0.5c-0.5,-0.3 -0.9,-0.8 -1.2,-1.4c-0.3,-0.6 -0.4,-1.3 -0.4,-2.1c0,-1.2 0.3,-2.2 0.9,-2.8c0.6,-0.7 1.5,-1 2.5,-1c1,0 1.9,0.3 2.5,1c0.6,0.8 0.9,1.8 0.9,2.9zm-5.7,0c0,1 0.2,1.7 0.6,2.2c0.4,0.5 0.9,0.8 1.7,0.8c0.7,0 1.3,-0.2 1.7,-0.7c0.4,-0.5 0.6,-1.2 0.6,-2.2c0,-1 -0.2,-1.7 -0.6,-2.2c-0.4,-0.5 -0.9,-0.7 -1.7,-0.7c-0.7,0 -1.3,0.2 -1.7,0.7c-0.4,0.5 -0.6,1.2 -0.6,2.1zm12.8,3.8l0,-4.8c0,-0.6 -0.1,-1.1 -0.4,-1.4c-0.3,-0.3 -0.7,-0.5 -1.3,-0.5c-0.8,0 -1.4,0.2 -1.7,0.6c-0.4,0.4 -0.5,1.1 -0.5,2.1l0,3.9l-1.1,0l0,-7.5l0.9,0l0.2,1l0.1,0c0.2,-0.4 0.6,-0.7 1,-0.9c0.4,-0.2 0.9,-0.3 1.4,-0.3c0.9,0 1.6,0.2 2,0.7c0.5,0.4 0.7,1.1 0.7,2.1l0,4.9l-1.3,0.1z" class="st1"/>
  <path id="svg_17" fill="#434468" d="m78.5,56.9l-4.1,-11.9l-0.1,0c0.1,1.8 0.2,3.4 0.2,5l0,6.9l-2.1,0l0,-14.3l3.3,0l4,11.3l0.1,0l4.1,-11.3l3.3,0l0,14.3l-2.2,0l0,-7.1c0,-0.7 0,-1.6 0,-2.8c0,-1.1 0.1,-1.8 0.1,-2.1l-0.1,0l-4.3,11.9l-2.2,0.1zm20.1,-3.9c0,1.3 -0.5,2.3 -1.4,3c-0.9,0.7 -2.2,1.1 -3.8,1.1c-1.6,0 -2.9,-0.3 -4,-0.8l0,-2.2c0.7,0.3 1.3,0.5 2.1,0.7c0.7,0.2 1.4,0.3 2,0.3c0.9,0 1.6,-0.2 2,-0.5c0.4,-0.4 0.7,-0.8 0.7,-1.4c0,-0.5 -0.2,-1 -0.6,-1.4c-0.4,-0.4 -1.2,-0.8 -2.5,-1.3c-1.3,-0.5 -2.2,-1.1 -2.7,-1.8c-0.5,-0.7 -0.8,-1.5 -0.8,-2.4c0,-1.2 0.4,-2.1 1.3,-2.8c0.8,-0.7 2,-1 3.4,-1c1.4,0 2.7,0.3 4.1,0.9l-0.7,1.9c-1.3,-0.5 -2.4,-0.8 -3.4,-0.8c-0.8,0 -1.3,0.2 -1.7,0.5c-0.4,0.3 -0.6,0.8 -0.6,1.3c0,0.4 0.1,0.7 0.2,1c0.2,0.3 0.4,0.5 0.8,0.7c0.4,0.2 1,0.5 1.9,0.9c1,0.4 1.8,0.8 2.3,1.2c0.5,0.4 0.8,0.8 1.1,1.3c0.2,0.4 0.3,0.9 0.3,1.6zm4.6,3.9l-2.3,0l0,-14.3l8,0l0,2l-5.7,0l0,4.5l5.4,0l0,2l-5.4,0l0,5.8zm12.9,0l-2.3,0l0,-12.3l-4.2,0l0,-2l10.7,0l0,2l-4.2,0l0,12.3z" class="st2"/>
  <rect id="svg_18" fill="#FFFFFF" height="17" width="23.4" class="st0" y="112.7" x="211.3"/>
  <rect id="svg_19" fill-opacity="0.88" fill="#FFFFFF" height="13.8" width="24.4" class="st8" y="136.1" x="210.2"/>
  <rect id="svg_20" fill-opacity="0.88" fill="#FFFFFF" height="13.8" width="24.4" class="st8" y="159.4" x="210.2"/>
  <path id="svg_21" fill="#8F90A3" d="m225.3,142.6l-0.8,0l0,-3.2c0,-0.4 0,-0.7 0,-0.9c-0.1,0.1 -0.1,0.1 -0.2,0.2c-0.1,0.1 -0.3,0.3 -0.8,0.6l-0.4,-0.5l1.5,-1.1l0.7,0l0,4.9zm5,-2.5c0,0.9 -0.1,1.5 -0.4,1.9c-0.3,0.4 -0.7,0.6 -1.3,0.6c-0.6,0 -1,-0.2 -1.3,-0.7c-0.3,-0.4 -0.4,-1.1 -0.4,-1.9c0,-0.9 0.1,-1.5 0.4,-1.9c0.3,-0.4 0.7,-0.6 1.3,-0.6c0.6,0 1,0.2 1.3,0.7c0.3,0.4 0.4,1 0.4,1.9zm-2.5,0c0,0.7 0.1,1.2 0.2,1.5c0.1,0.3 0.4,0.4 0.7,0.4c0.3,0 0.5,-0.1 0.7,-0.4c0.1,-0.3 0.2,-0.8 0.2,-1.4c0,-0.7 -0.1,-1.1 -0.2,-1.4c-0.1,-0.3 -0.4,-0.4 -0.7,-0.4c-0.3,0 -0.5,0.1 -0.7,0.4c-0.2,0.1 -0.2,0.6 -0.2,1.3zm6.5,0c0,0.9 -0.1,1.5 -0.4,1.9c-0.3,0.4 -0.7,0.6 -1.3,0.6c-0.6,0 -1,-0.2 -1.3,-0.7c-0.3,-0.4 -0.4,-1.1 -0.4,-1.9c0,-0.9 0.1,-1.5 0.4,-1.9c0.3,-0.4 0.7,-0.6 1.3,-0.6c0.6,0 1,0.2 1.3,0.7c0.3,0.4 0.4,1 0.4,1.9zm-2.5,0c0,0.7 0.1,1.2 0.2,1.5c0.1,0.3 0.4,0.4 0.7,0.4c0.3,0 0.5,-0.1 0.7,-0.4c0.1,-0.3 0.2,-0.8 0.2,-1.4c0,-0.7 -0.1,-1.1 -0.2,-1.4c-0.1,-0.3 -0.4,-0.4 -0.7,-0.4c-0.3,0 -0.5,0.1 -0.7,0.4c-0.2,0.1 -0.2,0.6 -0.2,1.3z" class="st1"/>
  <path id="svg_22" fill="#8F90A3" d="m227.5,167l2,-4.3l-2.6,0l0,-0.7l3.4,0l0,0.6l-2,4.4l-0.8,0zm5.1,-3.1c0.5,0 0.9,0.1 1.2,0.4s0.4,0.6 0.4,1.1c0,0.5 -0.2,0.9 -0.5,1.2c-0.3,0.3 -0.8,0.4 -1.4,0.4c-0.6,0 -1,-0.1 -1.3,-0.3l0,-0.7c0.2,0.1 0.4,0.2 0.6,0.2c0.2,0.1 0.5,0.1 0.7,0.1c0.4,0 0.6,-0.1 0.8,-0.2c0.2,-0.2 0.3,-0.4 0.3,-0.7c0,-0.6 -0.4,-0.9 -1.1,-0.9c-0.1,0 -0.2,0 -0.4,0c-0.2,0 -0.3,0 -0.4,0.1l-0.4,-0.2l0.2,-2.4l2.6,0l0,0.7l-1.9,0l-0.1,1.2c0.1,0 0.2,0 0.3,0c0.1,0 0.3,0 0.4,0z" class="st1"/>
  <g id="svg_23" opacity="0.1" class="st9">
   <path id="svg_24" stroke-linejoin="round" stroke-linecap="round" stroke-width="2.118" stroke="#434468" fill="none" d="m24.8,209c2,-3.1 3.6,-5.9 6,-8.8c0.7,-0.8 0.7,1.1 1,1.5c0,0 0.3,-2.1 0.7,-0.3c0.1,0.3 3.5,5.2 4.5,2.4c0.3,-0.8 0.4,-5 0.9,-2.8c0.5,2.1 1,0.2 1.8,0.8c0.8,0.5 1.8,-6.2 1.9,-6.9c0.7,-4.5 0.3,-3 1.9,-0.1c0.5,0.9 2.1,1.3 2.1,1.5c0.1,0.7 0.4,6.1 1,5.4c0.8,-0.9 1.8,-1.8 2.2,-2.9c0.7,-1.8 0.6,-7.4 1.2,-5.6c0.3,0.9 1.3,6.3 2.8,4.5c2.4,-3 1.1,-0.5 4,0.6c2,0.8 3.1,-3.8 4.2,-3.2c1.3,0.7 0.9,6.9 1.4,0.7c0.5,-6.1 -0.1,-6.9 1,-13.3c0.4,-2.5 1.1,-0.6 1.6,0.4c0.7,1.5 4.1,-5.8 4.4,-6.5c1.6,-3.7 0.9,-0.1 2.1,2.2c1.4,2.9 5.9,-6.2 6.6,-7.3c2.7,-4.5 1.2,5.1 1.2,6.7c0.1,1.6 -0.1,11.7 2.7,6.3c0.6,-1.1 1.5,5.1 1.7,5.9c1.3,5.1 2.2,-1.8 2.9,-3.3c1.2,-2.6 1.8,5.4 2.9,8c1.3,3.1 3.2,-5 3.6,-6.3c0.6,-2.2 -0.1,1.8 0.6,-0.2c0.7,-2 1,-11.2 2.8,-12c0.8,-0.3 0.8,4.3 1.4,4.3c1.4,0.1 1.2,-5.2 2.3,-2.4c0.3,0.8 2.5,7.6 3.6,7.1c1,-0.4 5,-7.9 5.3,-6.9c0.3,0.8 1.2,7.8 2.1,7c1.7,-1.7 3.4,-8.4 6.2,-4.9c1.4,1.7 1.8,3.6 4,2.6c0.9,-0.4 2,4.6 2.6,5.3c1.2,1.4 3.6,-3.3 4.1,-4c1.6,-2.6 0.3,1.2 1.5,-0.2c2.2,-2.5 2.6,-6.2 4.7,-8.8c1.4,-1.7 0.4,3.7 1.5,3.4c1.7,-0.4 3.8,-4.6 5.6,-4.2c1.2,0.3 0.1,4.1 1.9,4.2c1.5,0.1 2.6,-2.6 4,-0.6c1.6,2.2 0.9,2.6 3.1,0.5c1,-0.9 5.5,-5.2 7,-3.9c1.3,1 1.1,6.4 3.6,4c2,-1.9 4.5,-4.6 5.6,-7.1c0.1,-0.3 -0.3,0.6 -0.4,0.9c-0.2,0.8 0.8,-0.3 0.9,-0.4c1.4,-1.1 6.3,-6.1 8.2,-5.3c2.4,1.1 0.1,3.1 4,0c2.6,-2.1 3.9,-13.6 4.9,-9.5c1.1,4.6 3.8,-13.2 6.5,-15.1c2.5,-1.8 5.3,35.3 6.5,38.2c1.8,4.1 1.7,-11.9 3.9,-14.7c4.7,6.5 4.6,-5.9 4.7,-5.4c0.7,1.9 3.7,12.8 5,14.3c3.2,3.6 3.4,-8.2 7.5,-8.1c1.7,0.1 0.9,1.7 3.2,0c0.6,-0.4 1,-1 1.6,-1" class="st10"/>
  </g>
  <path id="svg_25" stroke-linejoin="round" stroke-linecap="round" stroke-width="1.3473" stroke="#5AC5A1" fill="none" d="m10,172.2c2,-3.1 3.6,-5.9 6,-8.8c0.7,-0.8 0.7,1.1 1,1.5c0,0 0.3,-2.1 0.7,-0.3c0.1,0.3 3.5,5.2 4.5,2.4c0.3,-0.8 0.4,-5 0.9,-2.8c0.5,2.1 1,0.2 1.8,0.8c0.8,0.5 1.8,-6.2 1.9,-6.9c0.7,-4.5 0.3,-3 1.9,-0.1c0.5,0.9 2.1,1.3 2.1,1.5c0.1,0.7 0.4,6.1 1,5.4c0.8,-0.9 1.8,-1.8 2.2,-2.9c0.7,-1.8 0.6,-7.4 1.2,-5.6c0.3,0.9 1.3,6.3 2.8,4.5c2.4,-3 1.1,-0.5 4,0.6c2,0.8 3.1,-3.8 4.2,-3.2c1.3,0.7 0.9,6.9 1.4,0.7c0.5,-6.1 -0.1,-6.9 1,-13.3c0.4,-2.5 1.1,-0.6 1.6,0.4c0.7,1.5 4.1,-5.8 4.4,-6.5c1.6,-3.7 0.9,-0.1 2.1,2.2c1.4,2.9 5.9,-6.2 6.6,-7.3c2.7,-4.5 1.2,5.1 1.2,6.7c0.1,1.6 -0.1,11.7 2.7,6.3c0.6,-1.1 1.5,5.1 1.7,5.9c1.3,5.1 2.2,-1.8 2.9,-3.3c1.2,-2.6 1.8,5.4 2.9,8c1.3,3.1 3.2,-5 3.6,-6.3c0.6,-2.2 -0.1,1.8 0.6,-0.2c0.7,-2 1,-11.2 2.8,-12c0.8,-0.3 0.8,4.3 1.4,4.3c1.4,0.1 1.2,-5.2 2.3,-2.4c0.3,0.8 2.5,7.6 3.6,7.1c1,-0.4 5,-7.9 5.3,-6.9c0.3,0.8 1.2,7.8 2.1,7c1.7,-1.7 3.4,-8.4 6.2,-4.9c1.4,1.7 1.8,3.6 4,2.6c0.9,-0.4 2,4.6 2.6,5.3c1.2,1.4 3.6,-3.3 4.1,-4c1.6,-2.6 0.3,1.2 1.5,-0.2c2.2,-2.5 2.6,-6.2 4.7,-8.8c1.4,-1.7 0.4,3.7 1.5,3.4c1.7,-0.4 3.8,-4.6 5.6,-4.2c1.2,0.3 0.1,4.1 1.9,4.2c1.5,0.1 2.6,-2.6 4,-0.6c1.6,2.2 0.9,2.6 3.1,0.5c1,-0.9 5.5,-5.2 7,-3.9c1.3,1 1.1,6.4 3.6,4c2,-1.9 4.5,-4.6 5.6,-7.1c0.1,-0.3 -0.3,0.6 -0.4,0.9c-0.2,0.8 0.8,-0.3 0.9,-0.4c1.4,-1.1 6.3,-6.1 8.2,-5.3c2.4,1.1 0.1,3.1 4,0c2.6,-2.1 3.9,-13.6 4.9,-9.5c1.1,4.6 3.8,-13.2 6.5,-15.1c2.5,-1.8 5.3,35.3 6.5,38.2c1.8,4.1 1.7,-11.9 3.9,-14.7c4.7,6.5 4.6,-5.9 4.7,-5.4c0.7,1.9 3.7,12.8 5,14.3c3.2,3.6 3.4,-8.2 7.5,-8.1c1.7,0.1 0.9,1.7 3.2,0c0.6,-0.4 1,-1 1.6,-1" class="st11"/>
  <path id="svg_26" stroke-linejoin="round" stroke-linecap="round" stroke-width="1.3473" stroke="#5AC5A1" fill="none" d="m10,172.2c2,-3.1 3.6,-5.9 6,-8.8c0.7,-0.8 0.7,1.1 1,1.5c0,0 0.3,-2.1 0.7,-0.3c0.1,0.3 3.5,5.2 4.5,2.4c0.3,-0.8 0.4,-5 0.9,-2.8c0.5,2.1 1,0.2 1.8,0.8c0.8,0.5 1.8,-6.2 1.9,-6.9c0.7,-4.5 0.3,-3 1.9,-0.1c0.5,0.9 2.1,1.3 2.1,1.5c0.1,0.7 0.4,6.1 1,5.4c0.8,-0.9 1.8,-1.8 2.2,-2.9c0.7,-1.8 0.6,-7.4 1.2,-5.6c0.3,0.9 1.3,6.3 2.8,4.5c2.4,-3 1.1,-0.5 4,0.6c2,0.8 3.1,-3.8 4.2,-3.2c1.3,0.7 0.9,6.9 1.4,0.7c0.5,-6.1 -0.1,-6.9 1,-13.3c0.4,-2.5 1.1,-0.6 1.6,0.4c0.7,1.5 4.1,-5.8 4.4,-6.5c1.6,-3.7 0.9,-0.1 2.1,2.2c1.4,2.9 5.9,-6.2 6.6,-7.3c2.7,-4.5 1.2,5.1 1.2,6.7c0.1,1.6 -0.1,11.7 2.7,6.3c0.6,-1.1 1.5,5.1 1.7,5.9c1.3,5.1 2.2,-1.8 2.9,-3.3c1.2,-2.6 1.8,5.4 2.9,8c1.3,3.1 3.2,-5 3.6,-6.3c0.6,-2.2 -0.1,1.8 0.6,-0.2c0.7,-2 1,-11.2 2.8,-12c0.8,-0.3 0.8,4.3 1.4,4.3c1.4,0.1 1.2,-5.2 2.3,-2.4c0.3,0.8 2.5,7.6 3.6,7.1c1,-0.4 5,-7.9 5.3,-6.9c0.3,0.8 1.2,7.8 2.1,7c1.7,-1.7 3.4,-8.4 6.2,-4.9c1.4,1.7 1.8,3.6 4,2.6c0.9,-0.4 2,4.6 2.6,5.3c1.2,1.4 3.6,-3.3 4.1,-4c1.6,-2.6 0.3,1.2 1.5,-0.2c2.2,-2.5 2.6,-6.2 4.7,-8.8c1.4,-1.7 0.4,3.7 1.5,3.4c1.7,-0.4 3.8,-4.6 5.6,-4.2c1.2,0.3 0.1,4.1 1.9,4.2c1.5,0.1 2.6,-2.6 4,-0.6c1.6,2.2 0.9,2.6 3.1,0.5c1,-0.9 5.5,-5.2 7,-3.9c1.3,1 1.1,6.4 3.6,4c2,-1.9 4.5,-4.6 5.6,-7.1c0.1,-0.3 -0.3,0.6 -0.4,0.9c-0.2,0.8 0.8,-0.3 0.9,-0.4c1.4,-1.1 6.3,-6.1 8.2,-5.3c2.4,1.1 0.1,3.1 4,0c2.6,-2.1 3.9,-13.6 4.9,-9.5c1.1,4.6 3.8,-13.2 6.5,-15.1c2.5,-1.8 5.3,35.3 6.5,38.2c1.8,4.1 1.7,-11.9 3.9,-14.7c4.7,6.5 4.6,-5.9 4.7,-5.4c0.7,1.9 3.7,12.8 5,14.3c3.2,3.6 3.4,-8.2 7.5,-8.1c1.7,0.1 0.9,1.7 3.2,0c0.6,-0.4 1,-1 1.6,-1" class="st11"/>
  <path id="svg_27" stroke-linejoin="round" stroke-linecap="round" stroke-width="2.118" stroke="#5AC5A1" fill="none" d="m10,172.2c2,-3.1 3.6,-5.9 6,-8.8c0.7,-0.8 0.7,1.1 1,1.5c0,0 0.3,-2.1 0.7,-0.3c0.1,0.3 3.5,5.2 4.5,2.4c0.3,-0.8 0.4,-5 0.9,-2.8c0.5,2.1 1,0.2 1.8,0.8c0.8,0.5 1.8,-6.2 1.9,-6.9c0.7,-4.5 0.3,-3 1.9,-0.1c0.5,0.9 2.1,1.3 2.1,1.5c0.1,0.7 0.4,6.1 1,5.4c0.8,-0.9 1.8,-1.8 2.2,-2.9c0.7,-1.8 0.6,-7.4 1.2,-5.6c0.3,0.9 1.3,6.3 2.8,4.5c2.4,-3 1.1,-0.5 4,0.6c2,0.8 3.1,-3.8 4.2,-3.2c1.3,0.7 0.9,6.9 1.4,0.7c0.5,-6.1 -0.1,-6.9 1,-13.3c0.4,-2.5 1.1,-0.6 1.6,0.4c0.7,1.5 4.1,-5.8 4.4,-6.5c1.6,-3.7 0.9,-0.1 2.1,2.2c1.4,2.9 5.9,-6.2 6.6,-7.3c2.7,-4.5 1.2,5.1 1.2,6.7c0.1,1.6 -0.1,11.7 2.7,6.3c0.6,-1.1 1.5,5.1 1.7,5.9c1.3,5.1 2.2,-1.8 2.9,-3.3c1.2,-2.6 1.8,5.4 2.9,8c1.3,3.1 3.2,-5 3.6,-6.3c0.6,-2.2 -0.1,1.8 0.6,-0.2c0.7,-2 1,-11.2 2.8,-12c0.8,-0.3 0.8,4.3 1.4,4.3c1.4,0.1 1.2,-5.2 2.3,-2.4c0.3,0.8 2.5,7.6 3.6,7.1c1,-0.4 5,-7.9 5.3,-6.9c0.3,0.8 1.2,7.8 2.1,7c1.7,-1.7 3.4,-8.4 6.2,-4.9c1.4,1.7 1.8,3.6 4,2.6c0.9,-0.4 2,4.6 2.6,5.3c1.2,1.4 3.6,-3.3 4.1,-4c1.6,-2.6 0.3,1.2 1.5,-0.2c2.2,-2.5 2.6,-6.2 4.7,-8.8c1.4,-1.7 0.4,3.7 1.5,3.4c1.7,-0.4 3.8,-4.6 5.6,-4.2c1.2,0.3 0.1,4.1 1.9,4.2c1.5,0.1 2.6,-2.6 4,-0.6c1.6,2.2 0.9,2.6 3.1,0.5c1,-0.9 5.5,-5.2 7,-3.9c1.3,1 1.1,6.4 3.6,4c2,-1.9 4.5,-4.6 5.6,-7.1c0.1,-0.3 -0.3,0.6 -0.4,0.9c-0.2,0.8 0.8,-0.3 0.9,-0.4c1.4,-1.1 6.3,-6.1 8.2,-5.3c2.4,1.1 0.1,3.1 4,0c2.6,-2.1 3.9,-13.6 4.9,-9.5c1.1,4.6 3.8,-13.2 6.5,-15.1c2.5,-1.8 5.3,35.3 6.5,38.2c1.8,4.1 1.7,-11.9 3.9,-14.7c4.7,6.5 4.6,-5.9 4.7,-5.4c0.7,1.9 3.7,12.8 5,14.3c3.2,3.6 3.4,-8.2 7.5,-8.1c1.7,0.1 0.9,1.7 3.2,0c0.6,-0.4 1,-1 1.6,-1" class="st12"/>
  <path id="svg_29" fill="#8F90A3" d="m225.3,120.3l-0.8,0l0,-3.2c0,-0.4 0,-0.7 0,-0.9c-0.1,0.1 -0.1,0.1 -0.2,0.2c-0.1,0.1 -0.3,0.3 -0.8,0.6l-0.4,-0.5l1.5,-1.1l0.7,0l0,4.9zm5,0l-3.4,0l0,-0.6l1.3,-1.3c0.4,-0.4 0.6,-0.7 0.8,-0.8c0.1,-0.2 0.2,-0.3 0.3,-0.5c0.1,-0.1 0.1,-0.3 0.1,-0.5c0,-0.2 -0.1,-0.4 -0.2,-0.5c-0.1,-0.1 -0.3,-0.2 -0.6,-0.2c-0.2,0 -0.4,0 -0.6,0.1c-0.2,0.1 -0.4,0.2 -0.6,0.4l-0.4,-0.5c0.3,-0.2 0.5,-0.4 0.8,-0.5c0.3,-0.1 0.5,-0.1 0.8,-0.1c0.5,0 0.8,0.1 1.1,0.4c0.3,0.2 0.4,0.6 0.4,1c0,0.2 0,0.4 -0.1,0.6c-0.1,0.2 -0.2,0.4 -0.4,0.6c-0.2,0.2 -0.4,0.5 -0.8,0.9l-0.9,0.8l0,0l2.4,0l0,0.7zm2.3,-3.1c0.5,0 0.9,0.1 1.2,0.4c0.3,0.3 0.4,0.6 0.4,1.1c0,0.5 -0.2,0.9 -0.5,1.2c-0.3,0.3 -0.8,0.4 -1.4,0.4c-0.6,0 -1,-0.1 -1.3,-0.3l0,-0.7c0.2,0.1 0.4,0.2 0.6,0.2c0.2,0.1 0.5,0.1 0.7,0.1c0.4,0 0.6,-0.1 0.8,-0.2c0.2,-0.2 0.3,-0.4 0.3,-0.7c0,-0.6 -0.4,-0.9 -1.1,-0.9c-0.1,0 -0.2,0 -0.4,0c-0.2,0 -0.3,0 -0.4,0.1l-0.4,-0.2l0.2,-2.4l2.6,0l0,0.7l-1.9,0l-0.1,1.2c0.1,0 0.2,0 0.3,0c0.1,0 0.3,0 0.4,0z" class="st1"/>
  <g id="svg_30"/>
  <path id="svg_31" fill="#FFFFFF" d="m279.7,2l370.4,0c2.2,0 4,1.8 4,4l0,202c0,2.2 -1.8,4 -4,4l-370.4,0c-2.2,0 -4,-1.8 -4,-4l0,-202c0,-2.2 1.8,-4 4,-4z" class="st0"/>
  <path id="svg_32" fill="#8F90A3" d="m307.8,60.6l-1.6,-4.1l-5.1,0l-1.6,4.1l-1.5,0l5.1,-12.8l1.3,0l5,12.8l-1.6,0zm-2,-5.4l-1.5,-4c-0.2,-0.5 -0.4,-1.1 -0.6,-1.8c-0.1,0.6 -0.3,1.2 -0.6,1.8l-1.5,4l4.2,0zm9.5,5.6c-0.6,0 -1.2,-0.1 -1.7,-0.3c-0.5,-0.2 -0.9,-0.6 -1.3,-1.1l-0.1,0c0.1,0.6 0.1,1.1 0.1,1.6l0,3.9l-1.5,0l0,-13.8l1.2,0l0.2,1.3l0.1,0c0.4,-0.5 0.8,-0.9 1.3,-1.1c0.5,-0.2 1.1,-0.3 1.7,-0.3c1.3,0 2.2,0.4 2.9,1.3c0.7,0.9 1,2.1 1,3.7c0,1.6 -0.4,2.8 -1.1,3.7c-0.5,0.7 -1.5,1.1 -2.8,1.1zm-0.2,-8.7c-1,0 -1.7,0.3 -2.1,0.8c-0.4,0.5 -0.7,1.4 -0.7,2.6l0,0.3c0,1.3 0.2,2.3 0.7,2.9c0.4,0.6 1.2,0.9 2.2,0.9c0.8,0 1.5,-0.3 1.9,-1c0.5,-0.7 0.7,-1.6 0.7,-2.8c0,-1.2 -0.2,-2.1 -0.7,-2.7c-0.5,-0.7 -1.1,-1 -2,-1zm11.2,8.7c-0.6,0 -1.2,-0.1 -1.7,-0.3c-0.5,-0.2 -0.9,-0.6 -1.3,-1.1l-0.1,0c0.1,0.6 0.1,1.1 0.1,1.6l0,3.9l-1.5,0l0,-13.8l1.2,0l0.2,1.3l0.1,0c0.4,-0.5 0.8,-0.9 1.3,-1.1c0.5,-0.2 1.1,-0.3 1.7,-0.3c1.3,0 2.2,0.4 2.9,1.3c0.7,0.9 1,2.1 1,3.7c0,1.6 -0.4,2.8 -1.1,3.7c-0.6,0.7 -1.5,1.1 -2.8,1.1zm-0.2,-8.7c-1,0 -1.7,0.3 -2.1,0.8c-0.4,0.5 -0.7,1.4 -0.7,2.6l0,0.3c0,1.3 0.2,2.3 0.7,2.9c0.4,0.6 1.2,0.9 2.2,0.9c0.8,0 1.5,-0.3 1.9,-1c0.5,-0.7 0.7,-1.6 0.7,-2.8c0,-1.2 -0.2,-2.1 -0.7,-2.7c-0.5,-0.7 -1.1,-1 -2,-1zm8.2,8.5l-1.5,0l0,-13.6l1.5,0l0,13.6zm7.1,0.2c-1.4,0 -2.5,-0.4 -3.4,-1.3c-0.8,-0.9 -1.2,-2.1 -1.2,-3.6c0,-1.5 0.4,-2.8 1.1,-3.7c0.8,-0.9 1.8,-1.4 3.1,-1.4c1.2,0 2.2,0.4 2.8,1.2c0.7,0.8 1,1.8 1,3.1l0,0.9l-6.6,0c0,1.1 0.3,2 0.8,2.6c0.5,0.6 1.3,0.9 2.3,0.9c1,0 2.1,-0.2 3.1,-0.6l0,1.3c-0.5,0.2 -1,0.4 -1.5,0.5c-0.3,0.1 -0.8,0.1 -1.5,0.1zm-0.4,-8.7c-0.8,0 -1.4,0.2 -1.8,0.8c-0.5,0.5 -0.7,1.2 -0.8,2.1l5,0c0,-0.9 -0.2,-1.6 -0.6,-2.1c-0.4,-0.6 -1,-0.8 -1.8,-0.8zm11.3,8.5l0,-12.7l1.5,0l0,12.8l-1.5,0l0,-0.1zm11.3,0l0,-6.2c0,-0.8 -0.2,-1.4 -0.5,-1.7c-0.4,-0.4 -0.9,-0.6 -1.7,-0.6c-1,0 -1.7,0.3 -2.2,0.8c-0.5,0.5 -0.7,1.4 -0.7,2.7l0,5l-1.5,0l0,-9.6l1.2,0l0.2,1.3l0.1,0c0.3,-0.5 0.7,-0.8 1.3,-1.1c0.5,-0.3 1.1,-0.4 1.8,-0.4c1.2,0 2,0.3 2.6,0.8c0.6,0.6 0.9,1.4 0.9,2.7l0,6.3l-1.5,0zm8.3,0.2c-1.4,0 -2.5,-0.4 -3.2,-1.3c-0.8,-0.9 -1.1,-2.1 -1.1,-3.6c0,-1.6 0.4,-2.8 1.2,-3.7c0.8,-0.9 1.9,-1.3 3.3,-1.3c0.5,0 0.9,0 1.4,0.1c0.5,0.1 0.8,0.2 1.1,0.3l-0.4,1.2c-0.3,-0.1 -0.7,-0.2 -1,-0.3c-0.4,-0.1 -0.7,-0.1 -1,-0.1c-1.9,0 -2.9,1.2 -2.9,3.7c0,1.2 0.2,2.1 0.7,2.7c0.5,0.6 1.2,0.9 2.1,0.9c0.8,0 1.6,-0.2 2.5,-0.5l0,1.3c-0.9,0.4 -1.7,0.6 -2.7,0.6z" class="st1"/>
  <path id="svg_33" fill="#434468" d="m310.3,37.9l-1.6,-4.5l-6.2,0l-1.6,4.5l-2.9,0l6.1,-16.4l2.9,0l6.1,16.4l-2.8,0zm-2.4,-6.8l-1.5,-4.4c-0.1,-0.3 -0.3,-0.8 -0.5,-1.4c-0.2,-0.6 -0.3,-1.1 -0.4,-1.4c-0.2,0.9 -0.5,1.9 -0.9,3l-1.5,4.2l4.8,0zm17,6.8l-1.6,-4.5l-6.3,0l-1.6,4.5l-2.8,0l6.1,-16.4l2.9,0l6.1,16.4l-2.8,0zm-2.3,-6.8l-1.5,-4.4c-0.1,-0.3 -0.3,-0.8 -0.5,-1.4c-0.2,-0.6 -0.3,-1.1 -0.4,-1.4c-0.2,0.9 -0.5,1.9 -0.9,3l-1.5,4.2l4.8,0zm17.6,-4.5c0,1.7 -0.6,3 -1.7,3.9c-1.1,0.9 -2.7,1.4 -4.8,1.4l-1.7,0l0,6.1l-2.7,0l0,-16.3l4.7,0c2,0 3.6,0.4 4.6,1.2c1.1,0.8 1.6,2.1 1.6,3.7zm-8.1,3l1.4,0c1.4,0 2.4,-0.2 3,-0.7c0.6,-0.5 1,-1.2 1,-2.2c0,-0.9 -0.3,-1.6 -0.9,-2.1c-0.6,-0.5 -1.5,-0.7 -2.7,-0.7l-1.9,0l0,5.7l0.1,0zm10.9,8.3l0,-16.2l2.7,0l0,14l6.9,0l0,2.3l-9.6,0l0,-0.1z" class="st2"/>
  <path id="svg_34" fill="#8F90A3" d="m333.3,191.8c0,1.4 -0.4,2.6 -1.1,3.4c-0.7,0.8 -1.7,1.2 -3.1,1.2c-1.3,0 -2.4,-0.4 -3.1,-1.2c-0.7,-0.8 -1.1,-1.9 -1.1,-3.4c0,-1.5 0.4,-2.6 1.1,-3.4c0.7,-0.8 1.8,-1.2 3.1,-1.2c1.3,0 2.3,0.4 3.1,1.2c0.8,0.9 1.1,2 1.1,3.4zm-6.7,0c0,1.1 0.2,1.9 0.7,2.5c0.4,0.6 1.1,0.8 2,0.8c0.9,0 1.5,-0.3 1.9,-0.8c0.4,-0.6 0.7,-1.4 0.7,-2.5c0,-1.1 -0.2,-1.9 -0.7,-2.5c-0.4,-0.6 -1.1,-0.8 -1.9,-0.8c-0.9,0 -1.5,0.3 -2,0.8c-0.5,0.6 -0.7,1.5 -0.7,2.5zm11.2,4.6c-1,0 -1.8,-0.3 -2.3,-0.9c-0.5,-0.6 -0.8,-1.4 -0.8,-2.6c0,-1.1 0.3,-2 0.8,-2.6c0.6,-0.6 1.4,-0.9 2.4,-0.9c0.7,0 1.3,0.1 1.9,0.4l-0.4,1.1c-0.6,-0.2 -1.1,-0.4 -1.5,-0.4c-1.2,0 -1.7,0.8 -1.7,2.3c0,0.8 0.1,1.3 0.4,1.7c0.3,0.4 0.7,0.6 1.3,0.6c0.6,0 1.2,-0.2 1.8,-0.5l0,1.2c-0.3,0.2 -0.5,0.3 -0.8,0.3c-0.4,0.3 -0.7,0.3 -1.1,0.3zm5.9,-1.1c0.3,0 0.7,-0.1 1,-0.2l0,1.1c-0.2,0.1 -0.4,0.1 -0.6,0.2c-0.2,0 -0.5,0.1 -0.8,0.1c-1.3,0 -2,-0.7 -2,-2.1l0,-3.6l-0.9,0l0,-0.8l1,-0.5l0.5,-1.4l0.9,0l0,1.5l1.9,0l0,1.1l-1.9,0l0,3.6c0,0.3 0.1,0.6 0.3,0.8c0.1,0.1 0.3,0.2 0.6,0.2zm11.1,1l-6,0l0,-1.1l2.3,-2.3c0.7,-0.7 1.1,-1.2 1.3,-1.5c0.2,-0.3 0.4,-0.6 0.5,-0.8c0.1,-0.3 0.2,-0.5 0.2,-0.8c0,-0.4 -0.1,-0.7 -0.4,-0.9c-0.2,-0.2 -0.6,-0.3 -1,-0.3c-0.3,0 -0.7,0.1 -1,0.2c-0.3,0.1 -0.7,0.4 -1.1,0.7l-0.8,-0.9c0.5,-0.4 1,-0.7 1.4,-0.9c0.5,-0.2 1,-0.3 1.5,-0.3c0.8,0 1.5,0.2 2,0.6c0.5,0.4 0.7,1 0.7,1.7c0,0.4 -0.1,0.8 -0.2,1.1c-0.1,0.4 -0.4,0.7 -0.7,1.1c-0.3,0.4 -0.8,0.9 -1.5,1.5l-1.5,1.5l0,0.1l4.2,0l0,1.3l0.1,0zm7.1,-4.4c0,1.5 -0.2,2.7 -0.7,3.4c-0.5,0.7 -1.2,1.1 -2.3,1.1c-1,0 -1.7,-0.4 -2.2,-1.2c-0.5,-0.8 -0.8,-1.9 -0.8,-3.4c0,-1.6 0.2,-2.7 0.7,-3.5c0.5,-0.7 1.3,-1.1 2.3,-1.1c1,0 1.7,0.4 2.2,1.2c0.6,0.8 0.8,2 0.8,3.5zm-4.5,0c0,1.2 0.1,2.1 0.4,2.6c0.3,0.5 0.6,0.8 1.2,0.8c0.5,0 0.9,-0.3 1.2,-0.8c0.3,-0.5 0.4,-1.4 0.4,-2.6c0,-1.2 -0.1,-2 -0.4,-2.6c-0.3,-0.5 -0.6,-0.8 -1.2,-0.8c-0.5,0 -0.9,0.3 -1.2,0.8c-0.3,0.5 -0.4,1.4 -0.4,2.6zm9.8,4.4l-1.4,0l0,-5.7c0,-0.7 0,-1.2 0,-1.6c-0.1,0.1 -0.2,0.2 -0.3,0.3c-0.1,0.1 -0.6,0.5 -1.4,1.1l-0.7,-0.9l2.6,-2l1.2,0l0,8.8zm5.9,-9c0.8,0 1.5,0.2 2,0.6c0.5,0.4 0.7,0.9 0.7,1.5c0,0.9 -0.5,1.6 -1.6,2.2c0.7,0.3 1.2,0.7 1.5,1.1c0.3,0.4 0.4,0.8 0.4,1.3c0,0.7 -0.3,1.3 -0.8,1.8c-0.5,0.4 -1.3,0.7 -2.2,0.7c-1,0 -1.7,-0.2 -2.2,-0.6c-0.5,-0.4 -0.8,-1 -0.8,-1.8c0,-0.5 0.1,-0.9 0.4,-1.3c0.3,-0.4 0.7,-0.7 1.4,-1.1c-0.5,-0.3 -0.9,-0.7 -1.2,-1c-0.2,-0.4 -0.3,-0.8 -0.3,-1.2c0,-0.6 0.3,-1.2 0.8,-1.5c0.4,-0.5 1.1,-0.7 1.9,-0.7zm-1.6,6.7c0,0.4 0.1,0.7 0.4,1c0.3,0.2 0.7,0.3 1.2,0.3c0.5,0 0.9,-0.1 1.2,-0.4c0.3,-0.2 0.4,-0.6 0.4,-1c0,-0.3 -0.1,-0.6 -0.4,-0.9c-0.3,-0.3 -0.7,-0.5 -1.2,-0.8l-0.2,-0.1c-0.5,0.2 -0.9,0.5 -1.2,0.8c-0.1,0.4 -0.2,0.7 -0.2,1.1zm1.6,-5.6c-0.4,0 -0.7,0.1 -1,0.3c-0.2,0.2 -0.4,0.5 -0.4,0.8c0,0.2 0,0.4 0.1,0.6c0.1,0.2 0.2,0.3 0.4,0.5c0.2,0.1 0.5,0.3 0.9,0.5c0.5,-0.2 0.8,-0.4 1,-0.7c0.2,-0.2 0.3,-0.5 0.3,-0.8c0,-0.3 -0.1,-0.6 -0.4,-0.8c-0.2,-0.3 -0.5,-0.4 -0.9,-0.4z" class="st1"/>
  <path id="svg_35" fill="#8F90A3" d="m440.4,198.8c-0.4,0 -0.7,-0.1 -1,-0.2l0,-1.2c0.3,0.1 0.6,0.1 0.9,0.1c0.8,0 1.2,-0.5 1.2,-1.5l0,-8.6l1.5,0l0,8.5c0,0.9 -0.2,1.6 -0.6,2.1c-0.6,0.5 -1.2,0.8 -2,0.8zm8.8,-2.5l-0.3,-0.9l0,0c-0.3,0.4 -0.6,0.7 -1,0.8c-0.3,0.1 -0.7,0.2 -1.3,0.2c-0.7,0 -1.2,-0.2 -1.5,-0.5c-0.4,-0.4 -0.6,-0.9 -0.6,-1.5c0,-0.7 0.3,-1.2 0.8,-1.6c0.5,-0.4 1.3,-0.5 2.3,-0.6l1.2,0l0,-0.4c0,-0.4 -0.1,-0.7 -0.3,-1c-0.2,-0.2 -0.5,-0.3 -0.9,-0.3c-0.3,0 -0.7,0 -1,0.2c-0.3,0.1 -0.6,0.2 -0.9,0.4l-0.5,-1c0.4,-0.2 0.8,-0.3 1.2,-0.4c0.4,-0.1 0.8,-0.2 1.2,-0.2c0.9,0 1.5,0.2 1.9,0.6c0.4,0.4 0.7,1 0.7,1.8l0,4.5l-1,0l0,-0.1zm-2.1,-1c0.5,0 0.9,-0.1 1.2,-0.4c0.3,-0.3 0.5,-0.7 0.5,-1.2l0,-0.6l-0.9,0c-0.7,0 -1.2,0.1 -1.5,0.3c-0.3,0.2 -0.5,0.5 -0.5,0.9c0,0.3 0.1,0.5 0.3,0.7c0.3,0.2 0.6,0.3 0.9,0.3zm11,1l-1.4,0l0,-4.1c0,-0.5 -0.1,-0.9 -0.3,-1.2c-0.2,-0.3 -0.5,-0.4 -1,-0.4c-0.6,0 -1,0.2 -1.3,0.5c-0.3,0.4 -0.4,1 -0.4,1.8l0,3.3l-1.4,0l0,-6.7l1.1,0l0.2,0.9l0.1,0c0.2,-0.3 0.5,-0.6 0.9,-0.7c0.4,-0.2 0.8,-0.3 1.2,-0.3c1.6,0 2.4,0.8 2.4,2.5l0,4.4l-0.1,0zm10.8,0l-6,0l0,-1.1l2.3,-2.3c0.7,-0.7 1.1,-1.2 1.3,-1.5c0.2,-0.3 0.4,-0.6 0.5,-0.8c0.1,-0.3 0.2,-0.5 0.2,-0.8c0,-0.4 -0.1,-0.7 -0.4,-0.9c-0.2,-0.2 -0.6,-0.3 -1,-0.3c-0.3,0 -0.7,0.1 -1,0.2c-0.3,0.1 -0.7,0.4 -1.1,0.7l-0.8,-0.9c0.5,-0.4 1,-0.7 1.4,-0.9c0.5,-0.2 1,-0.3 1.5,-0.3c0.8,0 1.5,0.2 2,0.6c0.5,0.4 0.7,1 0.7,1.7c0,0.4 -0.1,0.8 -0.2,1.1c-0.1,0.4 -0.4,0.7 -0.7,1.1c-0.3,0.4 -0.8,0.9 -1.5,1.5l-1.5,1.5l0,0.1l4.2,0l0,1.3l0.1,0zm7.1,-4.4c0,1.5 -0.2,2.7 -0.7,3.4c-0.5,0.7 -1.2,1.1 -2.3,1.1c-1,0 -1.7,-0.4 -2.2,-1.2c-0.5,-0.8 -0.8,-1.9 -0.8,-3.4c0,-1.6 0.2,-2.7 0.7,-3.5c0.5,-0.7 1.3,-1.1 2.3,-1.1c1,0 1.7,0.4 2.2,1.2c0.5,0.8 0.8,2 0.8,3.5zm-4.6,0c0,1.2 0.1,2.1 0.4,2.6c0.3,0.5 0.6,0.8 1.2,0.8c0.5,0 0.9,-0.3 1.2,-0.8c0.3,-0.5 0.4,-1.4 0.4,-2.6c0,-1.2 -0.1,-2 -0.4,-2.6c-0.3,-0.5 -0.6,-0.8 -1.2,-0.8c-0.5,0 -0.9,0.3 -1.2,0.8c-0.3,0.5 -0.4,1.4 -0.4,2.6zm9.8,4.4l-1.4,0l0,-5.7c0,-0.7 0,-1.2 0,-1.6c-0.1,0.1 -0.2,0.2 -0.3,0.3c-0.1,0.1 -0.6,0.5 -1.4,1.1l-0.7,-0.9l2.6,-2l1.2,0l0,8.8zm8.9,-5.1c0,1.7 -0.4,3 -1.1,3.9c-0.7,0.9 -1.8,1.3 -3.2,1.3c-0.5,0 -0.9,0 -1.2,-0.1l0,-1.2c0.4,0.1 0.7,0.2 1.1,0.2c1,0 1.7,-0.3 2.2,-0.8c0.5,-0.5 0.7,-1.3 0.8,-2.4l-0.1,0c-0.2,0.4 -0.5,0.6 -0.9,0.8c-0.3,0.2 -0.7,0.2 -1.2,0.2c-0.8,0 -1.4,-0.2 -1.8,-0.7c-0.4,-0.5 -0.7,-1.2 -0.7,-2c0,-0.9 0.3,-1.7 0.8,-2.2c0.5,-0.5 1.2,-0.8 2.1,-0.8c0.6,0 1.2,0.2 1.6,0.5c0.5,0.3 0.8,0.8 1.1,1.3c0.4,0.5 0.5,1.2 0.5,2zm-3.1,-2.7c-0.5,0 -0.9,0.2 -1.1,0.5c-0.3,0.3 -0.4,0.8 -0.4,1.4c0,0.5 0.1,0.9 0.4,1.2c0.2,0.3 0.6,0.4 1.1,0.4c0.5,0 0.9,-0.1 1.2,-0.4s0.5,-0.6 0.5,-1c0,-0.4 -0.1,-0.7 -0.2,-1c-0.1,-0.3 -0.3,-0.6 -0.6,-0.7c-0.2,-0.3 -0.5,-0.4 -0.9,-0.4z" class="st1"/>
  <path id="svg_36" fill="#8F90A3" d="m574,196.3l-0.9,-2.5l-3.4,0l-0.9,2.5l-1.5,0l3.3,-8.9l1.6,0l3.3,8.9l-1.5,0zm-1.3,-3.7l-0.8,-2.4c-0.1,-0.2 -0.1,-0.4 -0.3,-0.8c-0.1,-0.3 -0.2,-0.6 -0.2,-0.8c-0.1,0.5 -0.3,1 -0.5,1.6l-0.8,2.3l2.6,0l0,0.1zm7.2,3.8c-0.8,0 -1.5,-0.3 -2,-0.9l-0.1,0c0.1,0.6 0.1,0.9 0.1,1l0,2.7l-1.4,0l0,-9.7l1.2,0c0,0.1 0.1,0.4 0.2,0.9l0.1,0c0.4,-0.7 1.1,-1 2,-1c0.8,0 1.5,0.3 2,0.9c0.5,0.6 0.7,1.5 0.7,2.6c0,1.1 -0.2,1.9 -0.7,2.6c-0.6,0.6 -1.2,0.9 -2.1,0.9zm-0.3,-5.8c-0.6,0 -1,0.2 -1.2,0.5c-0.3,0.3 -0.4,0.9 -0.4,1.6l0,0.2c0,0.8 0.1,1.4 0.4,1.8c0.3,0.4 0.7,0.5 1.3,0.5c0.5,0 0.9,-0.2 1.1,-0.6c0.3,-0.4 0.4,-1 0.4,-1.7c0,-0.8 -0.1,-1.3 -0.4,-1.7c-0.3,-0.4 -0.7,-0.6 -1.2,-0.6zm8.1,-1.1c0.3,0 0.5,0 0.7,0.1l-0.1,1.3c-0.2,0 -0.4,-0.1 -0.6,-0.1c-0.6,0 -1,0.2 -1.4,0.6c-0.4,0.4 -0.5,0.9 -0.5,1.4l0,3.5l-1.4,0l0,-6.7l1.1,0l0.2,1.2l0.1,0c0.2,-0.4 0.5,-0.7 0.9,-1c0.2,-0.2 0.6,-0.3 1,-0.3zm10.7,6.8l-6,0l0,-1.1l2.3,-2.3c0.7,-0.7 1.1,-1.2 1.3,-1.5c0.2,-0.3 0.4,-0.6 0.5,-0.8c0.1,-0.3 0.2,-0.5 0.2,-0.8c0,-0.4 -0.1,-0.7 -0.4,-0.9c-0.2,-0.2 -0.6,-0.3 -1,-0.3c-0.3,0 -0.7,0.1 -1,0.2c-0.3,0.1 -0.7,0.4 -1.1,0.7l-0.8,-0.9c0.5,-0.4 1,-0.7 1.4,-0.9c0.5,-0.2 1,-0.3 1.5,-0.3c0.8,0 1.5,0.2 2,0.6c0.5,0.4 0.7,1 0.7,1.7c0,0.4 -0.1,0.8 -0.2,1.1c-0.1,0.4 -0.4,0.7 -0.7,1.1c-0.3,0.4 -0.8,0.9 -1.5,1.5l-1.5,1.5l0,0.1l4.2,0l0,1.3l0.1,0zm7.1,-4.4c0,1.5 -0.2,2.7 -0.7,3.4c-0.5,0.7 -1.2,1.1 -2.3,1.1c-1,0 -1.7,-0.4 -2.2,-1.2c-0.5,-0.8 -0.8,-1.9 -0.8,-3.4c0,-1.6 0.2,-2.7 0.7,-3.5c0.5,-0.7 1.3,-1.1 2.3,-1.1c1,0 1.7,0.4 2.2,1.2c0.5,0.8 0.8,2 0.8,3.5zm-4.6,0c0,1.2 0.1,2.1 0.4,2.6c0.3,0.5 0.6,0.8 1.2,0.8c0.5,0 0.9,-0.3 1.2,-0.8c0.3,-0.5 0.4,-1.4 0.4,-2.6c0,-1.2 -0.1,-2 -0.4,-2.6c-0.3,-0.5 -0.6,-0.8 -1.2,-0.8c-0.5,0 -0.9,0.3 -1.2,0.8c-0.3,0.5 -0.4,1.4 -0.4,2.6zm9.8,4.4l-1.4,0l0,-5.7c0,-0.7 0,-1.2 0,-1.6c-0.1,0.1 -0.2,0.2 -0.3,0.3c-0.1,0.1 -0.6,0.5 -1.4,1.1l-0.7,-0.9l2.6,-2l1.2,0l0,8.8zm8.9,-5.1c0,1.7 -0.4,3 -1.1,3.9c-0.7,0.9 -1.8,1.3 -3.2,1.3c-0.5,0 -0.9,0 -1.2,-0.1l0,-1.2c0.4,0.1 0.7,0.2 1.1,0.2c1,0 1.7,-0.3 2.2,-0.8c0.5,-0.5 0.7,-1.3 0.8,-2.4l-0.1,0c-0.2,0.4 -0.5,0.6 -0.9,0.8c-0.3,0.2 -0.7,0.2 -1.2,0.2c-0.8,0 -1.4,-0.2 -1.8,-0.7c-0.4,-0.5 -0.7,-1.2 -0.7,-2c0,-0.9 0.3,-1.7 0.8,-2.2c0.5,-0.5 1.2,-0.8 2.1,-0.8c0.6,0 1.2,0.2 1.6,0.5c0.5,0.3 0.8,0.8 1.1,1.3c0.4,0.5 0.5,1.2 0.5,2zm-3.1,-2.7c-0.5,0 -0.9,0.2 -1.1,0.5c-0.3,0.3 -0.4,0.8 -0.4,1.4c0,0.5 0.1,0.9 0.4,1.2c0.2,0.3 0.6,0.4 1.1,0.4c0.5,0 0.9,-0.1 1.2,-0.4c0.3,-0.3 0.5,-0.6 0.5,-1c0,-0.4 -0.1,-0.7 -0.2,-1c-0.1,-0.3 -0.3,-0.6 -0.6,-0.7c-0.2,-0.3 -0.5,-0.4 -0.9,-0.4z" class="st1"/>
  <path id="svg_37" fill-opacity="0.2" fill="url(#SVGID_4_)" d="m654.2,131c-3.9,-2 -6.9,-3.9 -11.5,-5.8c-1.3,-0.5 -1.3,0.7 -2,1c0,0 -0.5,-1.4 -1.4,-0.2c-0.1,0.2 -6.7,3.4 -8.5,1.6c-0.5,-0.5 -0.7,-3.3 -1.8,-1.9c-1,1.4 -1.8,0.2 -3.5,0.5c-1.5,0.3 -3.4,-4.1 -3.6,-4.5c-1.3,-2.9 -0.6,-2 -3.7,-0.1c-0.9,0.6 -4,0.9 -4,1c-0.1,0.5 -0.7,4 -2,3.5c-1.5,-0.6 -3.4,-1.2 -4.2,-1.9c-1.3,-1.2 -1.1,-4.9 -2.2,-3.7c-0.5,0.6 -2.6,4.1 -5.3,3c-4.6,-1.9 -2.2,-0.3 -7.6,0.4c-3.7,0.5 -5.9,-2.5 -8,-2.1c-2.5,0.5 -1.6,4.6 -2.6,0.5c-0.9,-4 0.3,-4.5 -1.8,-8.8c-0.8,-1.6 -2.1,-0.4 -3.1,0.3c-1.3,1 -7.9,-3.8 -8.4,-4.3c-3.1,-2.5 -1.7,-0.1 -4,1.5c-2.7,1.9 -11.3,-4.1 -12.5,-4.8c-5.2,-3 -2.2,3.4 -2.4,4.4c-0.1,1 0.2,7.7 -5.2,4.2c-1.1,-0.7 -2.9,3.3 -3.3,3.8c-2.5,3.3 -4.2,-1.2 -5.5,-2.2c-2.3,-1.7 -3.5,3.5 -5.6,5.2c-2.5,2.1 -6.1,-3.3 -6.8,-4.2c-1.2,-1.4 0.2,1.2 -1.1,-0.1c-1.3,-1.3 -2,-7.4 -5.3,-7.9c-1.5,-0.2 -1.5,2.8 -2.7,2.8c-2.7,0.1 -2.2,-3.4 -4.4,-1.6c-0.6,0.5 -4.8,5 -6.9,4.7c-2,-0.3 -9.4,-5.2 -10.1,-4.5c-0.5,0.5 -2.4,5.1 -4,4.6c-3.3,-1.1 -6.4,-5.5 -11.8,-3.2c-2.6,1.1 -3.5,2.4 -7.6,1.7c-1.7,-0.3 -3.7,3 -4.9,3.5c-2.2,0.9 -6.9,-2.1 -7.7,-2.6c-3,-1.7 -0.6,0.8 -2.9,-0.1c-4.2,-1.6 -5,-4.1 -9,-5.8c-2.6,-1.1 -0.8,2.4 -2.8,2.3c-3.2,-0.3 -7.2,-3 -10.6,-2.7c-2.3,0.2 -0.2,2.7 -3.7,2.8c-2.9,0.1 -5,-1.7 -7.6,-0.4c-3,1.5 -1.7,1.7 -6,0.3l-0.1,0c-2.1,-0.7 -10.3,-3.3 -13.2,-2.5c-2.4,0.6 -2.2,4.2 -6.8,2.6c-3.6,-1.2 -8.1,-2.9 -10.4,-4.4c-0.2,-0.2 -0.4,-0.3 -0.3,-0.2c0.1,0.1 0.2,0.1 0.3,0.2c0.2,0.1 0.4,0.3 0.4,0.4c0.3,0.5 -1.5,-0.2 -1.8,-0.3c-2.6,-0.7 -12,-4 -15.6,-3.5c-4.6,0.7 -0.3,2 -7.6,0c-4.9,-1.4 -7.5,-8.9 -9.4,-6.3c-2.2,3 -7.2,-8.7 -12.4,-10c-4.7,-1.2 -10,23.2 -12.4,25.1c-3.3,2.7 -3.3,-7.8 -7.5,-9.6c-9,4.3 -8.7,-3.9 -9,-3.6c-1.3,1.2 -7,8.4 -9.6,9.4c-6,2.4 -6.5,-5.4 -14.2,-5.3c-3.2,0 -1.7,1.1 -6.1,0c-1.1,-0.3 -1.8,-0.7 -3.1,-0.7l0,84.2l378.1,0l0,-55.7l0.3,0z" class="st14"/>
  <path id="svg_38" stroke-linejoin="round" stroke-linecap="round" stroke-width="2.118" stroke="#FC7373" fill="none" d="m654.2,132.4c-3.9,-2.1 -6.9,-4 -11.5,-6c-1.3,-0.5 -1.3,0.8 -2,1c0,0 -0.5,-1.4 -1.4,-0.2c-0.1,0.2 -6.7,3.6 -8.5,1.6c-0.5,-0.5 -0.7,-3.4 -1.8,-1.9c-1,1.4 -1.8,0.2 -3.5,0.5c-1.5,0.3 -3.4,-4.2 -3.6,-4.7c-1.3,-3 -0.6,-2 -3.7,-0.1c-0.9,0.6 -4,0.9 -4,1c-0.1,0.5 -0.7,4.1 -2,3.6c-1.5,-0.6 -3.4,-1.2 -4.2,-2c-1.3,-1.2 -1.1,-5 -2.2,-3.8c-0.5,0.6 -2.6,4.3 -5.3,3.1c-4.6,-2 -2.2,-0.3 -7.6,0.4c-3.7,0.5 -5.9,-2.6 -8,-2.2c-2.5,0.5 -1.6,4.7 -2.6,0.5c-0.9,-4.2 0.3,-4.7 -1.8,-9.1c-0.8,-1.7 -2.1,-0.4 -3.1,0.3c-1.3,1 -7.9,-4 -8.4,-4.4c-3.1,-2.5 -1.7,-0.1 -4,1.5c-2.7,2 -11.3,-4.2 -12.5,-5c-5.2,-3.1 -2.2,3.5 -2.4,4.5c-0.1,1.1 0.2,7.9 -5.2,4.3c-1.1,-0.8 -2.9,3.5 -3.3,4c-2.5,3.4 -4.2,-1.2 -5.5,-2.2c-2.3,-1.7 -3.5,3.6 -5.6,5.4c-2.5,2.1 -6.1,-3.4 -6.8,-4.3c-1.2,-1.5 0.2,1.2 -1.1,-0.1c-1.3,-1.3 -2,-7.6 -5.3,-8.2c-1.5,-0.2 -1.5,2.9 -2.7,2.9c-2.7,0.1 -2.2,-3.5 -4.4,-1.6c-0.6,0.5 -4.8,5.2 -6.9,4.8c-2,-0.3 -9.4,-5.3 -10.1,-4.7c-0.5,0.5 -2.4,5.3 -4,4.8c-3.3,-1.1 -6.4,-5.7 -11.8,-3.3c-2.6,1.1 -3.5,2.5 -7.6,1.7c-1.7,-0.3 -3.7,3.1 -4.9,3.6c-2.2,1 -6.9,-2.2 -7.7,-2.7c-3,-1.8 -0.6,0.8 -2.9,-0.1c-4.2,-1.7 -5,-4.2 -9,-6c-2.6,-1.1 -0.8,2.5 -2.8,2.3c-3.2,-0.3 -7.2,-3.1 -10.6,-2.8c-2.3,0.2 -0.2,2.8 -3.7,2.9c-2.9,0.1 -5,-1.8 -7.6,-0.4c-3,1.5 -1.7,1.8 -6,0.3c-1.8,-0.6 -10.4,-3.5 -13.4,-2.7c-2.4,0.7 -2.2,4.3 -6.8,2.7c-3.7,-1.3 -8.5,-3.1 -10.7,-4.8c-0.3,-0.2 0.6,0.4 0.7,0.6c0.3,0.5 -1.5,-0.2 -1.8,-0.3c-2.6,-0.7 -12,-4.2 -15.6,-3.6c-4.6,0.7 -0.3,2.1 -7.6,0c-4.9,-1.4 -7.5,-9.2 -9.4,-6.5c-2.2,3.1 -7.2,-9 -12.4,-10.3c-4.7,-1.2 -10,24 -12.4,25.9c-3.3,2.8 -3.3,-8.1 -7.5,-10c-9,4.4 -8.7,-4 -9,-3.7c-1.3,1.3 -7,8.7 -9.6,9.7c-6,2.5 -6.5,-5.6 -14.2,-5.5c-3.2,0 -1.7,1.2 -6.1,0c-1.1,-0.3 -1.8,-0.7 -3.1,-0.7" class="st15"/>
  <path id="svg_39" fill="#FC7373" d="m596.8,67.3l0,-1.6l4,0l0,1.6l-4,0zm13,-2.2c0,2 -0.3,3.5 -1,4.4c-0.6,1 -1.6,1.4 -2.9,1.4c-1.3,0 -2.2,-0.5 -2.9,-1.5c-0.7,-1 -1,-2.5 -1,-4.4c0,-2 0.3,-3.5 1,-4.5c0.6,-1 1.6,-1.4 2.9,-1.4c1.3,0 2.2,0.5 2.9,1.5c0.7,1.1 1,2.5 1,4.5zm-5.9,0c0,1.6 0.2,2.7 0.5,3.3c0.3,0.7 0.8,1 1.5,1s1.2,-0.3 1.5,-1c0.3,-0.7 0.5,-1.8 0.5,-3.3c0,-1.5 -0.2,-2.6 -0.5,-3.3c-0.3,-0.7 -0.8,-1 -1.5,-1s-1.2,0.3 -1.5,1c-0.3,0.6 -0.5,1.7 -0.5,3.3zm7.7,4.7c0,-0.4 0.1,-0.7 0.3,-0.9c0.2,-0.2 0.5,-0.3 0.9,-0.3c0.4,0 0.7,0.1 0.9,0.3c0.2,0.2 0.3,0.5 0.3,0.9c0,0.4 -0.1,0.7 -0.3,0.9c-0.2,0.2 -0.5,0.3 -0.9,0.3s-0.7,-0.1 -0.9,-0.3c-0.2,-0.2 -0.3,-0.5 -0.3,-0.9zm9.4,1l-1.8,0l0,-7.4c0,-0.9 0,-1.6 0.1,-2.1c-0.1,0.1 -0.3,0.3 -0.4,0.4c-0.2,0.2 -0.8,0.6 -1.8,1.4l-0.9,-1.2l3.4,-2.6l1.5,0l0,11.5l-0.1,0zm3.8,-4.9c0,-4.5 1.8,-6.7 5.5,-6.7c0.6,0 1.1,0 1.5,0.1l0,1.5c-0.4,-0.1 -0.9,-0.2 -1.4,-0.2c-1.2,0 -2.1,0.3 -2.8,1c-0.6,0.7 -0.9,1.7 -1,3.2l0.1,0c0.2,-0.4 0.6,-0.7 1,-1c0.4,-0.2 1,-0.4 1.6,-0.4c1,0 1.8,0.3 2.4,1c0.6,0.6 0.9,1.5 0.9,2.6c0,1.2 -0.3,2.1 -1,2.8c-0.7,0.7 -1.6,1 -2.7,1c-0.8,0 -1.5,-0.2 -2.1,-0.6c-0.6,-0.4 -1.1,-1 -1.4,-1.7c-0.4,-0.6 -0.6,-1.5 -0.6,-2.6zm4,3.5c0.6,0 1.1,-0.2 1.5,-0.6c0.3,-0.4 0.5,-1 0.5,-1.7c0,-0.7 -0.2,-1.2 -0.5,-1.5c-0.3,-0.4 -0.8,-0.6 -1.4,-0.6c-0.4,0 -0.8,0.1 -1.1,0.3c-0.3,0.2 -0.6,0.4 -0.8,0.7c-0.2,0.3 -0.3,0.6 -0.3,0.9c0,0.7 0.2,1.4 0.6,1.9c0.4,0.4 0.9,0.6 1.5,0.6z" class="st16"/>
  <path id="svg_40" fill="#434468" d="m557.6,44.9l-3.2,0l0,-12.9c0,-1.5 0,-2.8 0.1,-3.7c-0.2,0.2 -0.5,0.5 -0.8,0.7c-0.3,0.3 -1.3,1.1 -3.1,2.5l-1.6,-2l5.9,-4.6l2.7,0l0,20zm20.5,-4.3l-2.7,0l0,4.4l-3.1,0l0,-4.4l-9.1,0l0,-2.5l9.1,-13.2l3.1,0l0,13l2.7,0l0,2.7zm-5.8,-2.7l0,-5c0,-1.8 0,-3.2 0.1,-4.4l-0.1,0c-0.3,0.6 -0.7,1.3 -1.2,2.2l-5,7.2l6.2,0zm20.1,-8.4c0,1.3 -0.4,2.3 -1.1,3.2c-0.7,0.8 -1.8,1.4 -3.1,1.7l0,0.1c1.6,0.2 2.8,0.7 3.6,1.5c0.8,0.8 1.2,1.9 1.2,3.2c0,1.9 -0.7,3.4 -2,4.5c-1.4,1 -3.3,1.6 -5.8,1.6c-2.2,0 -4.1,-0.4 -5.6,-1.1l0,-2.9c0.8,0.4 1.7,0.7 2.7,1c0.9,0.2 1.9,0.3 2.7,0.3c1.5,0 2.7,-0.3 3.5,-0.9c0.8,-0.6 1.1,-1.5 1.1,-2.7c0,-1.1 -0.4,-1.8 -1.3,-2.4c-0.8,-0.5 -2.2,-0.8 -4,-0.8l-1.7,0l0,-2.6l1.8,0c3.2,0 4.8,-1.1 4.8,-3.3c0,-0.9 -0.3,-1.5 -0.8,-2c-0.6,-0.5 -1.4,-0.7 -2.5,-0.7c-0.8,0 -1.5,0.1 -2.2,0.3c-0.7,0.2 -1.5,0.6 -2.5,1.2l-1.6,-2.2c1.8,-1.3 4,-2 6.4,-2c2,0 3.6,0.4 4.7,1.3c1.1,1 1.7,2.2 1.7,3.7zm3.5,13.7c0,-0.7 0.2,-1.2 0.5,-1.5c0.3,-0.4 0.8,-0.5 1.5,-0.5c0.7,0 1.2,0.2 1.5,0.6c0.3,0.4 0.5,0.9 0.5,1.5c0,0.6 -0.2,1.2 -0.5,1.5c-0.3,0.4 -0.8,0.6 -1.5,0.6s-1.2,-0.2 -1.5,-0.6c-0.3,-0.4 -0.5,-0.9 -0.5,-1.6zm20.4,-8.3c0,3.5 -0.6,6.1 -1.7,7.7c-1.1,1.7 -2.8,2.5 -5.1,2.5c-2.2,0 -3.9,-0.9 -5.1,-2.6c-1.1,-1.7 -1.7,-4.3 -1.7,-7.7c0,-3.5 0.6,-6.1 1.7,-7.8c1.1,-1.7 2.8,-2.5 5.1,-2.5c2.2,0 3.9,0.9 5.1,2.6c1.1,1.9 1.7,4.5 1.7,7.8zm-10.3,0c0,2.7 0.3,4.7 0.8,5.8c0.6,1.2 1.5,1.8 2.7,1.8c1.2,0 2.1,-0.6 2.7,-1.8c0.6,-1.2 0.9,-3.1 0.9,-5.8c0,-2.7 -0.3,-4.6 -0.9,-5.8c-0.6,-1.2 -1.5,-1.8 -2.7,-1.8c-1.2,0 -2.1,0.6 -2.7,1.8c-0.6,1.2 -0.8,3.1 -0.8,5.8zm21.9,10l-3.2,0l0,-12.9c0,-1.5 0,-2.8 0.1,-3.7c-0.2,0.2 -0.5,0.5 -0.8,0.7c-0.3,0.3 -1.3,1.1 -3.1,2.5l-1.6,-2l5.9,-4.6l2.7,0l0,20z" class="st2"/>
  <line id="svg_41" stroke-opacity="0.27" stroke-width="1.1769" stroke="#A0B1C6" fill="none" y2="178.4" x2="350.7" y1="163.8" x1="350.7" class="st6"/>
  <line id="svg_42" stroke-opacity="0.27" stroke-width="1.1769" stroke="#A0B1C6" fill="none" y2="178.4" x2="465.8" y1="163.8" x1="465.8" class="st6"/>
  <line id="svg_43" stroke-opacity="0.27" stroke-width="1.1769" stroke="#A0B1C6" fill="none" y2="178.4" x2="594" y1="163.8" x1="594" class="st6"/>
  <g id="svg_44">
   <path id="svg_45" fill="#FFFFFF" d="m126.4,231l452.8,0.2c1.9,0 3.4,1.3 3.4,3l0,42.8c0,1.6 -1.5,2.9 -3.4,2.9l-452.8,-0.2c-1.9,0 -3.4,-1.3 -3.4,-3l0,-42.8c0,-1.6 1.5,-2.9 3.4,-2.9z" class="st0"/>
  </g>
  <path id="svg_46" fill="#434468" d="m141.9,259.2l-2.1,0l0,-5.8l0,-0.9l0,-1c-0.4,0.4 -0.6,0.6 -0.7,0.7l-1.1,0.9l-1,-1.3l3.2,-2.6l1.7,0l0,10zm9.3,-7.8c0,0.6 -0.2,1.2 -0.6,1.6c-0.4,0.4 -0.9,0.7 -1.6,0.9l0,0c0.8,0.1 1.4,0.3 1.8,0.7c0.4,0.4 0.6,0.9 0.6,1.6c0,1 -0.3,1.7 -1,2.2c-0.7,0.5 -1.7,0.8 -3,0.8c-1.1,0 -2,-0.2 -2.9,-0.5l0,-1.8c0.4,0.2 0.8,0.4 1.3,0.5c0.5,0.1 0.9,0.2 1.4,0.2c0.7,0 1.2,-0.1 1.5,-0.4c0.3,-0.2 0.5,-0.6 0.5,-1.1c0,-0.5 -0.2,-0.8 -0.6,-1s-1,-0.3 -1.8,-0.3l-0.8,0l0,-1.6l0.8,0c0.8,0 1.3,-0.1 1.7,-0.3c0.4,-0.2 0.5,-0.6 0.5,-1c0,-0.8 -0.5,-1.1 -1.4,-1.1c-0.3,0 -0.7,0.1 -1,0.2c-0.3,0.1 -0.7,0.3 -1.1,0.6l-1,-1.5c0.9,-0.7 2,-1 3.3,-1c1,0 1.8,0.2 2.4,0.6c0.7,0.4 1,1 1,1.7zm8.6,5.7l-1.2,0l0,2.1l-2.1,0l0,-2.1l-4.3,0l0,-1.5l4.4,-6.4l1.9,0l0,6.3l1.2,0l0.1,1.6zm-3.2,-1.6l0,-1.7c0,-0.3 0,-0.7 0,-1.2c0,-0.5 0,-0.8 0.1,-0.9l-0.1,0c-0.2,0.4 -0.4,0.7 -0.6,1.1l-1.8,2.8l2.4,-0.1zm4.3,2.7c0,-0.4 0.1,-0.7 0.3,-0.9c0.2,-0.2 0.5,-0.3 0.9,-0.3c0.4,0 0.7,0.1 0.9,0.3c0.2,0.2 0.3,0.5 0.3,0.9c0,0.4 -0.1,0.6 -0.3,0.9c-0.2,0.2 -0.5,0.3 -0.9,0.3c-0.4,0 -0.7,-0.1 -0.9,-0.3c-0.2,-0.2 -0.3,-0.5 -0.3,-0.9zm4.7,1l3.8,-8.2l-4.9,0l0,-1.8l7.2,0l0,1.3l-3.8,8.6l-2.3,0.1zm8,0l3.8,-8.2l-4.9,0l0,-1.8l7.2,0l0,1.3l-3.8,8.6l-2.3,0.1z" class="st2"/>
  <path id="svg_47" fill="#5AC5A1" d="m198.9,254.9l-2.7,0l0,-1.2l2.7,0l0,-2.8l1.2,0l0,2.8l2.7,0l0,1.2l-2.7,0l0,2.8l-1.2,0l0,-2.8zm12,-0.7c0,1.7 -0.3,3 -0.8,3.9c-0.6,0.8 -1.4,1.3 -2.6,1.3c-1.1,0 -2,-0.4 -2.5,-1.3c-0.6,-0.9 -0.9,-2.1 -0.9,-3.8c0,-1.8 0.3,-3.1 0.8,-3.9c0.6,-0.8 1.4,-1.3 2.6,-1.3c1.1,0 2,0.4 2.5,1.3c0.6,0.9 0.9,2.1 0.9,3.8zm-5.1,0c0,1.4 0.1,2.3 0.4,2.9c0.3,0.6 0.7,0.9 1.3,0.9c0.6,0 1.1,-0.3 1.3,-0.9c0.3,-0.6 0.4,-1.6 0.4,-2.9c0,-1.3 -0.1,-2.3 -0.4,-2.9c-0.3,-0.6 -0.7,-0.9 -1.3,-0.9c-0.6,0 -1.1,0.3 -1.3,0.9c-0.3,0.6 -0.4,1.6 -0.4,2.9zm6.6,4.2c0,-0.3 0.1,-0.6 0.3,-0.8c0.2,-0.2 0.4,-0.3 0.8,-0.3c0.3,0 0.6,0.1 0.8,0.3c0.2,0.2 0.3,0.4 0.3,0.8c0,0.3 -0.1,0.6 -0.3,0.8c-0.2,0.2 -0.4,0.3 -0.8,0.3c-0.3,0 -0.6,-0.1 -0.8,-0.3c-0.2,-0.2 -0.3,-0.5 -0.3,-0.8zm10.4,-4.2c0,1.7 -0.3,3 -0.8,3.9c-0.6,0.8 -1.4,1.3 -2.6,1.3c-1.1,0 -2,-0.4 -2.5,-1.3c-0.6,-0.9 -0.9,-2.1 -0.9,-3.8c0,-1.8 0.3,-3.1 0.8,-3.9c0.6,-0.8 1.4,-1.3 2.6,-1.3c1.1,0 2,0.4 2.5,1.3c0.6,0.9 0.9,2.2 0.9,3.8zm-5.2,0c0,1.4 0.1,2.3 0.4,2.9c0.3,0.6 0.7,0.9 1.3,0.9c0.6,0 1.1,-0.3 1.3,-0.9c0.3,-0.6 0.4,-1.6 0.4,-2.9c0,-1.3 -0.1,-2.3 -0.4,-2.9c-0.3,-0.6 -0.7,-0.9 -1.3,-0.9c-0.6,0 -1.1,0.3 -1.3,0.9c-0.2,0.6 -0.4,1.6 -0.4,2.9zm10,1.2c0,-1.2 0.2,-2.3 0.5,-3.4c0.4,-1.1 0.9,-2 1.5,-2.8l1.4,0c-0.6,0.9 -1.1,1.8 -1.5,2.9c-0.3,1.1 -0.5,2.1 -0.5,3.3c0,1.1 0.2,2.2 0.5,3.2c0.3,1 0.8,2 1.4,2.8l-1.4,0c-0.7,-0.8 -1.2,-1.7 -1.5,-2.7c-0.3,-1 -0.4,-2.1 -0.4,-3.3zm11.2,-1.2c0,1.7 -0.3,3 -0.8,3.9c-0.6,0.8 -1.4,1.3 -2.6,1.3c-1.1,0 -2,-0.4 -2.5,-1.3c-0.6,-0.9 -0.9,-2.1 -0.9,-3.8c0,-1.8 0.3,-3.1 0.8,-3.9c0.6,-0.8 1.4,-1.3 2.6,-1.3c1.1,0 2,0.4 2.5,1.3c0.7,0.9 0.9,2.2 0.9,3.8zm-5.1,0c0,1.4 0.1,2.3 0.4,2.9c0.3,0.6 0.7,0.9 1.3,0.9c0.6,0 1.1,-0.3 1.3,-0.9c0.3,-0.6 0.4,-1.6 0.4,-2.9c0,-1.3 -0.1,-2.3 -0.4,-2.9c-0.3,-0.6 -0.7,-0.9 -1.3,-0.9c-0.6,0 -1.1,0.3 -1.3,0.9c-0.3,0.6 -0.4,1.6 -0.4,2.9zm6.7,4.2c0,-0.3 0.1,-0.6 0.3,-0.8c0.2,-0.2 0.4,-0.3 0.8,-0.3c0.3,0 0.6,0.1 0.8,0.3c0.2,0.2 0.3,0.4 0.3,0.8c0,0.3 -0.1,0.6 -0.3,0.8c-0.2,0.2 -0.4,0.3 -0.8,0.3c-0.3,0 -0.6,-0.1 -0.8,-0.3c-0.3,-0.2 -0.3,-0.5 -0.3,-0.8zm10.3,-4.1c0,1.7 -0.3,3 -0.8,3.9c-0.6,0.8 -1.4,1.3 -2.6,1.3c-1.1,0 -2,-0.4 -2.5,-1.3c-0.6,-0.9 -0.9,-2.1 -0.9,-3.8c0,-1.8 0.3,-3.1 0.8,-3.9c0.6,-0.8 1.4,-1.3 2.6,-1.3c1.1,0 2,0.4 2.5,1.3c0.6,0.8 0.9,2.1 0.9,3.8zm-5.2,-0.1c0,1.4 0.1,2.3 0.4,2.9c0.3,0.6 0.7,0.9 1.3,0.9c0.6,0 1.1,-0.3 1.3,-0.9c0.3,-0.6 0.4,-1.6 0.4,-2.9c0,-1.3 -0.1,-2.3 -0.4,-2.9c-0.3,-0.6 -0.7,-0.9 -1.3,-0.9c-0.6,0 -1.1,0.3 -1.3,0.9c-0.2,0.6 -0.4,1.6 -0.4,2.9zm7.7,-1.9c0,0.7 0.1,1.2 0.2,1.5c0.1,0.3 0.3,0.5 0.6,0.5c0.6,0 0.9,-0.7 0.9,-2c0,-1.3 -0.3,-2 -0.9,-2c-0.3,0 -0.5,0.2 -0.6,0.5c-0.1,0.3 -0.2,0.8 -0.2,1.5zm3.1,-0.1c0,1 -0.2,1.8 -0.6,2.4c-0.4,0.5 -0.9,0.8 -1.7,0.8c-0.7,0 -1.2,-0.3 -1.6,-0.8c-0.4,-0.5 -0.6,-1.3 -0.6,-2.3c0,-2.1 0.7,-3.1 2.2,-3.1c0.7,0 1.3,0.3 1.6,0.8c0.5,0.5 0.7,1.2 0.7,2.2zm3.4,4c0,0.7 0.1,1.2 0.2,1.5c0.1,0.3 0.4,0.5 0.7,0.5c0.6,0 0.9,-0.7 0.9,-2c0,-1.3 -0.3,-2 -0.9,-2c-0.3,0 -0.5,0.2 -0.7,0.5c-0.1,0.4 -0.2,0.9 -0.2,1.5zm3.1,0c0,1 -0.2,1.8 -0.6,2.4c-0.4,0.5 -0.9,0.8 -1.7,0.8c-0.7,0 -1.2,-0.3 -1.6,-0.8c-0.4,-0.5 -0.6,-1.3 -0.6,-2.3c0,-2.1 0.7,-3.1 2.2,-3.1c0.7,0 1.2,0.3 1.6,0.8c0.5,0.5 0.7,1.2 0.7,2.2zm-2,-6.9l-5.5,10l-1.3,0l5.5,-10l1.3,0zm6.4,6.1c0,1.2 -0.2,2.3 -0.5,3.3c-0.4,1 -0.9,1.9 -1.5,2.7l-1.4,0c0.6,-0.9 1.1,-1.8 1.4,-2.8c0.3,-1 0.5,-2.1 0.5,-3.2c0,-1.1 -0.2,-2.2 -0.5,-3.3c-0.3,-1.1 -0.8,-2 -1.5,-2.9l1.4,0c0.7,0.8 1.2,1.7 1.5,2.8c0.5,1.1 0.6,2.2 0.6,3.4z" class="st5"/>
  <line id="svg_48" stroke-opacity="0.27" stroke-width="2" stroke="#A0B1C6" fill="none" y2="270.4" x2="287" y1="239.7" x1="287.1" class="st17"/>
  <path id="svg_49" fill="#434468" d="m311.1,259.3l-1,-2.8l-3.8,0l-1,2.8l-1.7,0l3.7,-10l1.8,0l3.7,10l-1.7,0zm-1.4,-4.2l-0.9,-2.7c-0.1,-0.2 -0.2,-0.5 -0.3,-0.9c-0.1,-0.4 -0.2,-0.7 -0.2,-0.9c-0.1,0.6 -0.3,1.2 -0.5,1.8l-0.9,2.6l2.8,0.1zm10.7,4.2l-1,-2.8l-3.8,0l-1,2.8l-1.7,0l3.7,-10l1.8,0l3.7,10l-1.7,0zm-1.5,-4.1l-0.9,-2.7c-0.1,-0.2 -0.2,-0.5 -0.3,-0.9c-0.1,-0.4 -0.2,-0.7 -0.2,-0.9c-0.1,0.6 -0.3,1.2 -0.5,1.8l-0.9,2.6l2.8,0.1zm11.1,-2.8c0,1 -0.3,1.8 -1,2.4c-0.7,0.6 -1.7,0.8 -2.9,0.8l-1,0l0,3.7l-1.6,0l0,-10l2.9,0c1.2,0 2.2,0.3 2.8,0.8c0.5,0.5 0.8,1.3 0.8,2.3zm-5,1.8l0.9,0c0.8,0 1.5,-0.1 1.8,-0.4c0.4,-0.3 0.6,-0.7 0.6,-1.4c0,-0.6 -0.2,-1 -0.5,-1.3c-0.4,-0.3 -0.9,-0.4 -1.6,-0.4l-1.1,0l-0.1,3.5zm7,5.1l0,-10l1.6,0l0,8.6l4.2,0l0,1.4l-5.8,0z" class="st2"/>
  <path id="svg_50" fill="#434468" d="m433.5,259.4l-2.1,0l0,-5.8l0,-0.9l0,-1c-0.4,0.4 -0.6,0.6 -0.7,0.7l-1.1,0.9l-1,-1.3l3.2,-2.6l1.7,0l0,10zm10,-2.1l-1.2,0l0,2.1l-2.1,0l0,-2.1l-4.3,0l0,-1.5l4.4,-6.4l1.9,0l0,6.3l1.2,0l0.1,1.6zm-3.2,-1.6l0,-1.7c0,-0.3 0,-0.7 0,-1.2c0,-0.5 0,-0.8 0.1,-0.9l-0.1,0c-0.2,0.4 -0.4,0.7 -0.6,1.1l-1.8,2.8l2.4,-0.1zm11.2,1.6l-1.2,0l0,2.1l-2.1,0l0,-2.1l-4.3,0l0,-1.5l4.4,-6.4l1.9,0l0,6.3l1.2,0l0.1,1.6zm-3.2,-1.6l0,-1.7c0,-0.3 0,-0.7 0,-1.2c0,-0.5 0,-0.8 0.1,-0.9l-0.1,0c-0.2,0.4 -0.4,0.7 -0.6,1.1l-1.8,2.8l2.4,-0.1zm4.2,2.7c0,-0.4 0.1,-0.7 0.3,-0.9c0.2,-0.2 0.5,-0.3 0.9,-0.3c0.4,0 0.7,0.1 0.9,0.3c0.2,0.2 0.3,0.5 0.3,0.9c0,0.4 -0.1,0.6 -0.3,0.9c-0.2,0.2 -0.5,0.3 -0.9,0.3c-0.4,0 -0.7,-0.1 -0.9,-0.3c-0.2,-0.2 -0.3,-0.5 -0.3,-0.9zm7.2,-9.1c1,0 1.7,0.2 2.3,0.7c0.6,0.4 0.9,1 0.9,1.8c0,0.5 -0.1,1 -0.4,1.4c-0.3,0.4 -0.7,0.8 -1.4,1.1c0.7,0.4 1.3,0.8 1.6,1.3c0.3,0.4 0.5,0.9 0.5,1.4c0,0.8 -0.3,1.5 -1,2c-0.6,0.5 -1.5,0.7 -2.5,0.7c-1.1,0 -2,-0.2 -2.6,-0.7c-0.6,-0.5 -0.9,-1.1 -0.9,-2c0,-0.6 0.2,-1.1 0.5,-1.5c0.3,-0.4 0.8,-0.8 1.5,-1.2c-0.6,-0.4 -1,-0.7 -1.2,-1.2c-0.3,-0.4 -0.4,-0.9 -0.4,-1.3c0,-0.7 0.3,-1.3 0.9,-1.7c0.5,-0.6 1.3,-0.8 2.2,-0.8zm-1.5,7.4c0,0.4 0.1,0.7 0.4,0.9c0.3,0.2 0.6,0.3 1.1,0.3c0.5,0 0.9,-0.1 1.2,-0.3c0.3,-0.2 0.4,-0.5 0.4,-0.9c0,-0.3 -0.1,-0.6 -0.4,-0.9c-0.3,-0.3 -0.7,-0.6 -1.3,-0.9c-0.9,0.6 -1.4,1.2 -1.4,1.8zm1.5,-5.9c-0.4,0 -0.7,0.1 -0.9,0.3c-0.2,0.2 -0.3,0.4 -0.3,0.7c0,0.3 0.1,0.5 0.3,0.7c0.2,0.2 0.5,0.4 1,0.7c0.4,-0.2 0.8,-0.4 0.9,-0.6c0.2,-0.2 0.3,-0.5 0.3,-0.8c0,-0.3 -0.1,-0.6 -0.3,-0.7c-0.3,-0.2 -0.6,-0.3 -1,-0.3zm9.8,8.6l-2.1,0l0,-5.8l0,-0.9l0,-1c-0.4,0.3 -0.6,0.6 -0.7,0.7l-1.1,0.9l-1,-1.3l3.2,-2.6l1.7,0l0,10z" class="st2"/>
  <path id="svg_51" fill="#8F90A3" d="m356.6,259.3l-1,-2.8l-3.8,0l-1,2.8l-1.7,0l3.7,-10l1.8,0l3.7,10l-1.7,0zm-1.4,-4.1l-0.9,-2.7c-0.1,-0.2 -0.2,-0.5 -0.3,-0.9c-0.1,-0.4 -0.2,-0.7 -0.2,-0.9c-0.1,0.6 -0.3,1.2 -0.5,1.8l-0.9,2.6l2.8,0.1zm8.1,4.3c-1,0 -1.7,-0.3 -2.2,-1l-0.1,0c0.1,0.6 0.1,1 0.1,1.2l0,3.1l-1.6,0l0,-10.9l1.3,0c0,0.1 0.1,0.5 0.2,1l0.1,0c0.5,-0.8 1.3,-1.1 2.3,-1.1c0.9,0 1.7,0.3 2.2,1c0.5,0.7 0.8,1.6 0.8,2.9c0,1.2 -0.3,2.2 -0.8,2.9c-0.6,0.5 -1.4,0.9 -2.3,0.9zm-0.4,-6.5c-0.6,0 -1.1,0.2 -1.4,0.6c-0.3,0.4 -0.4,1 -0.4,1.8l0,0.2c0,0.9 0.1,1.6 0.4,2c0.3,0.4 0.8,0.6 1.4,0.6c0.6,0 1,-0.2 1.3,-0.7c0.3,-0.5 0.5,-1.1 0.5,-1.9c0,-0.8 -0.1,-1.5 -0.4,-1.9c-0.4,-0.5 -0.8,-0.7 -1.4,-0.7zm9.1,6.5c-1,0 -1.7,-0.3 -2.2,-1l-0.1,0c0.1,0.6 0.1,1 0.1,1.2l0,3.1l-1.6,0l0,-10.9l1.3,0c0,0.1 0.1,0.5 0.2,1l0.1,0c0.5,-0.8 1.3,-1.1 2.3,-1.1c0.9,0 1.7,0.3 2.2,1c0.5,0.7 0.8,1.6 0.8,2.9c0,1.2 -0.3,2.2 -0.8,2.9c-0.6,0.5 -1.3,0.9 -2.3,0.9zm-0.4,-6.5c-0.6,0 -1.1,0.2 -1.4,0.6c-0.3,0.4 -0.4,1 -0.4,1.8l0,0.2c0,0.9 0.1,1.6 0.4,2c0.3,0.4 0.8,0.6 1.4,0.6c0.6,0 1,-0.2 1.3,-0.7c0.3,-0.5 0.5,-1.1 0.5,-1.9c0,-0.8 -0.1,-1.5 -0.4,-1.9c-0.4,-0.5 -0.8,-0.7 -1.4,-0.7zm6.9,6.4l-1.6,0l0,-10.6l1.6,0l0,10.6zm5.6,0.1c-1.2,0 -2.1,-0.3 -2.8,-1c-0.7,-0.7 -1,-1.6 -1,-2.8c0,-1.2 0.3,-2.2 0.9,-2.9c0.6,-0.7 1.5,-1.1 2.5,-1.1c1,0 1.8,0.3 2.4,0.9c0.6,0.6 0.9,1.4 0.9,2.5l0,0.9l-5,0c0,0.7 0.2,1.3 0.6,1.7c0.4,0.4 0.9,0.6 1.6,0.6c0.4,0 0.9,0 1.2,-0.1c0.4,-0.1 0.8,-0.2 1.2,-0.4l0,1.3c-0.4,0.2 -0.8,0.3 -1.2,0.4c-0.3,0 -0.8,0 -1.3,0zm-0.3,-6.6c-0.5,0 -0.9,0.2 -1.2,0.5c-0.3,0.3 -0.5,0.8 -0.5,1.4l3.4,0c0,-0.6 -0.2,-1.1 -0.5,-1.4c-0.3,-0.4 -0.7,-0.5 -1.2,-0.5zm8.9,6.5l0,-10l1.6,0l0,10l-1.6,0zm10.7,0l-1.6,0l0,-4.6c0,-0.6 -0.1,-1 -0.4,-1.3c-0.2,-0.3 -0.6,-0.4 -1.1,-0.4c-0.7,0 -1.2,0.2 -1.5,0.6c-0.3,0.4 -0.5,1.1 -0.5,2l0,3.8l-1.6,0l0,-7.6l1.3,0l0.2,1l0.1,0c0.2,-0.4 0.6,-0.6 1,-0.8c0.4,-0.2 0.9,-0.3 1.4,-0.3c1.8,0 2.7,0.9 2.7,2.8l0,4.8zm5.3,0.1c-1.1,0 -2,-0.3 -2.6,-1c-0.6,-0.7 -0.9,-1.6 -0.9,-2.9c0,-1.3 0.3,-2.2 0.9,-2.9c0.6,-0.7 1.5,-1 2.7,-1c0.8,0 1.5,0.1 2.2,0.4l-0.5,1.3c-0.7,-0.3 -1.2,-0.4 -1.7,-0.4c-1.3,0 -2,0.9 -2,2.6c0,0.8 0.2,1.5 0.5,1.9c0.3,0.4 0.8,0.6 1.4,0.6c0.7,0 1.4,-0.2 2,-0.5l0,1.4c-0.3,0.2 -0.6,0.3 -0.9,0.4c-0.2,0.1 -0.6,0.1 -1.1,0.1z" class="st1"/>
  <path id="svg_52" fill="#5AC5A1" d="m486.2,255.1l-2.7,0l0,-1.2l2.7,0l0,-2.8l1.2,0l0,2.8l2.7,0l0,1.2l-2.7,0l0,2.8l-1.2,0l0,-2.8zm12,-0.7c0,1.7 -0.3,3 -0.8,3.9c-0.6,0.8 -1.4,1.3 -2.6,1.3c-1.1,0 -2,-0.4 -2.5,-1.3c-0.6,-0.9 -0.9,-2.1 -0.9,-3.8c0,-1.8 0.3,-3.1 0.8,-3.9c0.6,-0.8 1.4,-1.3 2.6,-1.3c1.1,0 2,0.4 2.5,1.3c0.6,0.9 0.9,2.1 0.9,3.8zm-5.1,0c0,1.4 0.1,2.3 0.4,2.9c0.3,0.6 0.7,0.9 1.3,0.9c0.6,0 1.1,-0.3 1.3,-0.9c0.3,-0.6 0.4,-1.6 0.4,-2.9c0,-1.3 -0.1,-2.3 -0.4,-2.9c-0.3,-0.6 -0.7,-0.9 -1.3,-0.9c-0.6,0 -1.1,0.3 -1.3,0.9c-0.3,0.6 -0.4,1.6 -0.4,2.9zm6.6,4.2c0,-0.3 0.1,-0.6 0.3,-0.8c0.2,-0.2 0.4,-0.3 0.8,-0.3c0.3,0 0.6,0.1 0.8,0.3c0.2,0.2 0.3,0.4 0.3,0.8c0,0.3 -0.1,0.6 -0.3,0.8c-0.2,0.2 -0.4,0.3 -0.8,0.3c-0.3,0 -0.6,-0.1 -0.8,-0.3c-0.2,-0.3 -0.3,-0.5 -0.3,-0.8zm8.3,0.8l-1.6,0l0,-6.4c0,-0.8 0,-1.4 0.1,-1.8c-0.1,0.1 -0.2,0.2 -0.4,0.4c-0.2,0.1 -0.7,0.6 -1.5,1.3l-0.8,-1l2.9,-2.3l1.3,0l0,9.8zm3.3,-4.2c0,-3.9 1.6,-5.9 4.8,-5.9c0.5,0 0.9,0 1.3,0.1l0,1.3c-0.3,-0.1 -0.7,-0.2 -1.2,-0.1c-1.1,0 -1.9,0.3 -2.4,0.9c-0.5,0.6 -0.8,1.5 -0.9,2.8l0.1,0c0.2,-0.4 0.5,-0.7 0.9,-0.9c0.4,-0.2 0.8,-0.3 1.4,-0.3c0.9,0 1.6,0.3 2.1,0.8c0.5,0.6 0.8,1.3 0.8,2.3c0,1 -0.3,1.9 -0.9,2.5c-0.6,0.6 -1.4,0.9 -2.4,0.9c-0.7,0 -1.3,-0.2 -1.9,-0.5c-0.5,-0.3 -0.9,-0.8 -1.2,-1.5c-0.3,-0.7 -0.5,-1.5 -0.5,-2.4zm3.5,3c0.6,0 1,-0.2 1.3,-0.5c0.3,-0.4 0.4,-0.9 0.5,-1.5c0,-0.6 -0.1,-1 -0.4,-1.4c-0.3,-0.3 -0.7,-0.5 -1.3,-0.5c-0.3,0 -0.7,0.1 -1,0.2c-0.3,0.1 -0.5,0.3 -0.7,0.6c-0.2,0.3 -0.3,0.5 -0.3,0.8c0,0.6 0.2,1.2 0.5,1.6c0.4,0.5 0.9,0.7 1.4,0.7zm8.1,-2.6c0,-1.2 0.2,-2.3 0.5,-3.4c0.4,-1.1 0.9,-2 1.5,-2.8l1.4,0c-0.6,0.9 -1.1,1.8 -1.5,2.9c-0.3,1.1 -0.5,2.1 -0.5,3.3c0,1.1 0.2,2.2 0.5,3.2c0.3,1 0.8,2 1.4,2.8l-1.4,0c-0.7,-0.8 -1.2,-1.7 -1.5,-2.7c-0.3,-1 -0.4,-2.1 -0.4,-3.3zm11.2,-1.2c0,1.7 -0.3,3 -0.8,3.9c-0.6,0.8 -1.4,1.3 -2.6,1.3c-1.1,0 -2,-0.4 -2.5,-1.3c-0.6,-0.9 -0.9,-2.1 -0.9,-3.8c0,-1.8 0.3,-3.1 0.8,-3.9c0.6,-0.8 1.4,-1.3 2.6,-1.3c1.1,0 2,0.4 2.5,1.3c0.7,0.9 0.9,2.2 0.9,3.8zm-5.1,0c0,1.4 0.1,2.3 0.4,2.9c0.3,0.6 0.7,0.9 1.3,0.9c0.6,0 1.1,-0.3 1.3,-0.9c0.3,-0.6 0.4,-1.6 0.4,-2.9c0,-1.3 -0.1,-2.3 -0.4,-2.9c-0.3,-0.6 -0.7,-0.9 -1.3,-0.9c-0.6,0 -1.1,0.3 -1.3,0.9c-0.3,0.6 -0.4,1.6 -0.4,2.9zm6.7,4.2c0,-0.3 0.1,-0.6 0.3,-0.8c0.2,-0.2 0.4,-0.3 0.8,-0.3c0.3,0 0.6,0.1 0.8,0.3c0.2,0.2 0.3,0.4 0.3,0.8c0,0.3 -0.1,0.6 -0.3,0.8c-0.2,0.2 -0.4,0.3 -0.8,0.3c-0.3,0 -0.6,-0.1 -0.8,-0.3c-0.3,-0.2 -0.3,-0.5 -0.3,-0.8zm10.3,-4.2c0,1.7 -0.3,3 -0.8,3.9c-0.6,0.8 -1.4,1.3 -2.6,1.3c-1.1,0 -2,-0.4 -2.5,-1.3c-0.6,-0.9 -0.9,-2.1 -0.9,-3.8c0,-1.8 0.3,-3.1 0.8,-3.9c0.6,-0.8 1.4,-1.3 2.6,-1.3c1.1,0 2,0.4 2.5,1.3c0.6,0.9 0.9,2.2 0.9,3.8zm-5.2,0c0,1.4 0.1,2.3 0.4,2.9c0.3,0.6 0.7,0.9 1.3,0.9c0.6,0 1.1,-0.3 1.3,-0.9c0.3,-0.6 0.4,-1.6 0.4,-2.9c0,-1.3 -0.1,-2.3 -0.4,-2.9c-0.3,-0.6 -0.7,-0.9 -1.3,-0.9c-0.6,0 -1.1,0.3 -1.3,0.9c-0.2,0.6 -0.4,1.6 -0.4,2.9zm13.2,-0.7c0,2 -0.4,3.4 -1.2,4.4c-0.8,1 -2,1.5 -3.6,1.5c-0.6,0 -1,0 -1.3,-0.1l0,-1.3c0.4,0.1 0.8,0.2 1.2,0.2c1.1,0 1.9,-0.3 2.4,-0.9c0.5,-0.6 0.8,-1.5 0.9,-2.7l-0.1,0c-0.3,0.4 -0.6,0.7 -1,0.9c-0.4,0.2 -0.8,0.3 -1.3,0.3c-0.9,0 -1.6,-0.3 -2.1,-0.8c-0.5,-0.6 -0.8,-1.3 -0.8,-2.3c0,-1 0.3,-1.9 0.9,-2.5c0.6,-0.6 1.4,-0.9 2.4,-0.9c0.7,0 1.3,0.2 1.9,0.5c0.5,0.3 0.9,0.8 1.2,1.5c0.3,0.5 0.5,1.3 0.5,2.2zm-3.5,-3c-0.6,0 -1,0.2 -1.3,0.5c-0.3,0.4 -0.4,0.9 -0.4,1.5c0,0.6 0.1,1 0.4,1.3c0.3,0.3 0.7,0.5 1.3,0.5c0.5,0 1,-0.2 1.4,-0.5c0.4,-0.3 0.6,-0.7 0.6,-1.1c0,-0.4 -0.1,-0.8 -0.2,-1.1c-0.2,-0.4 -0.4,-0.6 -0.7,-0.8c-0.4,-0.2 -0.8,-0.3 -1.1,-0.3zm6,1.7c0,0.7 0.1,1.2 0.2,1.5c0.1,0.3 0.3,0.5 0.6,0.5c0.6,0 0.9,-0.7 0.9,-2c0,-1.3 -0.3,-2 -0.9,-2c-0.3,0 -0.5,0.2 -0.6,0.5c-0.1,0.4 -0.2,0.9 -0.2,1.5zm3.1,0c0,1 -0.2,1.8 -0.6,2.4c-0.4,0.5 -0.9,0.8 -1.7,0.8c-0.7,0 -1.2,-0.3 -1.6,-0.8c-0.4,-0.5 -0.6,-1.3 -0.6,-2.3c0,-2.1 0.7,-3.1 2.2,-3.1c0.7,0 1.3,0.3 1.6,0.8c0.5,0.5 0.7,1.2 0.7,2.2zm3.4,4c0,0.7 0.1,1.2 0.2,1.5c0.1,0.3 0.4,0.5 0.7,0.5c0.6,0 0.9,-0.7 0.9,-2c0,-1.3 -0.3,-2 -0.9,-2c-0.3,0 -0.5,0.2 -0.7,0.5c-0.1,0.4 -0.2,0.9 -0.2,1.5zm3.1,0c0,1 -0.2,1.8 -0.6,2.4c-0.4,0.5 -0.9,0.8 -1.7,0.8c-0.7,0 -1.2,-0.3 -1.6,-0.8c-0.4,-0.5 -0.6,-1.3 -0.6,-2.3c0,-2.1 0.7,-3.1 2.2,-3.1c0.7,0 1.2,0.3 1.6,0.8c0.5,0.5 0.7,1.2 0.7,2.2zm-2.1,-6.9l-5.5,10l-1.3,0l5.5,-10l1.3,0zm6.5,6.1c0,1.2 -0.2,2.3 -0.5,3.3c-0.4,1 -0.9,1.9 -1.5,2.7l-1.4,0c0.6,-0.9 1.1,-1.8 1.4,-2.8c0.3,-1 0.5,-2.1 0.5,-3.2c0,-1.1 -0.2,-2.2 -0.5,-3.3c-0.3,-1.1 -0.8,-2 -1.5,-2.9l1.4,0c0.7,0.8 1.2,1.7 1.5,2.8c0.4,1.1 0.6,2.2 0.6,3.4z" class="st5"/>
  <g id="svg_53">
   <path id="svg_54" fill="#FFFFFF" d="m499.2,322.4c-0.3,0 -0.6,0 -0.8,-0.1l0,-1c0.3,0.1 0.5,0.1 0.8,0.1c0.7,0 1,-0.4 1,-1.3l0,-7.3l1.2,0l0,7.3c0,0.8 -0.2,1.4 -0.6,1.8c-0.3,0.3 -0.9,0.5 -1.6,0.5zm8.1,-2.1l-0.2,-0.7l-0.1,0c-0.2,0.3 -0.4,0.5 -0.7,0.6c-0.3,0.2 -0.7,0.2 -1.1,0.2c-0.7,0 -1.2,-0.2 -1.6,-0.5c-0.3,-0.3 -0.5,-0.9 -0.5,-1.6l0,-3.7l1.2,0l0,3.5c0,0.4 0.1,0.8 0.3,1c0.2,0.2 0.5,0.3 0.8,0.3c0.5,0 0.9,-0.2 1.1,-0.5c0.2,-0.3 0.4,-0.8 0.4,-1.5l0,-2.9l1.2,0l0,5.7l-0.8,0l0,0.1zm3.9,0l-1.2,0l0,-8l1.2,0l0,8zm9.2,0l-5.1,0l0,-0.9l1.9,-2c0.6,-0.6 1,-1 1.1,-1.3c0.2,-0.2 0.3,-0.5 0.4,-0.7c0.1,-0.2 0.1,-0.4 0.1,-0.7c0,-0.3 -0.1,-0.6 -0.3,-0.8c-0.2,-0.2 -0.5,-0.3 -0.8,-0.3c-0.3,0 -0.6,0.1 -0.8,0.2c-0.3,0.1 -0.6,0.3 -0.9,0.6l-0.7,-0.8c0.4,-0.4 0.8,-0.6 1.2,-0.8c0.4,-0.1 0.8,-0.2 1.3,-0.2c0.7,0 1.3,0.2 1.7,0.6c0.4,0.4 0.6,0.9 0.6,1.5c0,0.3 -0.1,0.7 -0.2,1c-0.1,0.3 -0.3,0.6 -0.6,1c-0.3,0.3 -0.7,0.8 -1.3,1.3l-1.3,1.3l0,0.1l3.6,0l0,0.9l0.1,0zm2.6,-1.1c-0.2,0.6 -0.5,1.5 -0.9,2.5l-0.9,0c0.2,-0.9 0.4,-1.8 0.5,-2.6l1.2,0l0.1,0.1zm9,1.1l-5.1,0l0,-0.9l2,-2c0.6,-0.6 1,-1 1.1,-1.3c0.2,-0.2 0.3,-0.5 0.4,-0.7c0.1,-0.2 0.1,-0.4 0.1,-0.7c0,-0.3 -0.1,-0.6 -0.3,-0.8c-0.2,-0.2 -0.5,-0.3 -0.8,-0.3c-0.3,0 -0.6,0.1 -0.8,0.2c-0.3,0.1 -0.6,0.3 -0.9,0.6l-0.7,-0.8c0.4,-0.4 0.8,-0.6 1.2,-0.8c0.4,-0.1 0.8,-0.2 1.3,-0.2c0.7,0 1.3,0.2 1.7,0.6c0.4,0.4 0.6,0.9 0.6,1.5c0,0.3 -0.1,0.7 -0.2,1c-0.1,0.3 -0.3,0.6 -0.6,1c-0.3,0.3 -0.7,0.8 -1.3,1.3l-1.3,1.3l0,0.1l3.6,0l0,0.9zm6.1,-3.8c0,1.3 -0.2,2.3 -0.6,2.9c-0.4,0.6 -1.1,1 -1.9,1c-0.8,0 -1.5,-0.3 -1.9,-1c-0.4,-0.7 -0.7,-1.6 -0.7,-2.9c0,-1.3 0.2,-2.3 0.6,-2.9c0.4,-0.6 1.1,-1 1.9,-1c0.8,0 1.5,0.3 1.9,1c0.4,0.6 0.7,1.6 0.7,2.9zm-3.9,0c0,1 0.1,1.8 0.3,2.2c0.2,0.4 0.6,0.7 1,0.7c0.5,0 0.8,-0.2 1,-0.7c0.2,-0.4 0.3,-1.2 0.3,-2.2c0,-1 -0.1,-1.7 -0.3,-2.2c-0.2,-0.5 -0.6,-0.7 -1,-0.7c-0.5,0 -0.8,0.2 -1,0.7c-0.2,0.4 -0.3,1.2 -0.3,2.2zm8.4,3.8l-1.2,0l0,-4.9c0,-0.6 0,-1 0,-1.4c-0.1,0.1 -0.2,0.2 -0.3,0.3c-0.1,0.1 -0.5,0.4 -1.2,1l-0.6,-0.8l2.2,-1.7l1,0l0,7.5l0.1,0zm5,-7.7c0.7,0 1.3,0.2 1.7,0.5c0.4,0.3 0.6,0.8 0.6,1.3c0,0.8 -0.5,1.4 -1.4,1.9c0.6,0.3 1,0.6 1.3,0.9c0.3,0.3 0.4,0.7 0.4,1.1c0,0.6 -0.2,1.1 -0.7,1.5s-1.1,0.6 -1.9,0.6c-0.8,0 -1.5,-0.2 -1.9,-0.5c-0.5,-0.4 -0.7,-0.8 -0.7,-1.5c0,-0.4 0.1,-0.8 0.4,-1.1c0.2,-0.3 0.6,-0.6 1.2,-0.9c-0.5,-0.3 -0.8,-0.6 -1,-0.9c-0.2,-0.3 -0.3,-0.7 -0.3,-1c0,-0.5 0.2,-1 0.6,-1.3c0.4,-0.4 1,-0.6 1.7,-0.6zm-1.4,5.7c0,0.4 0.1,0.6 0.4,0.8c0.3,0.2 0.6,0.3 1,0.3c0.4,0 0.8,-0.1 1,-0.3c0.2,-0.2 0.4,-0.5 0.4,-0.8c0,-0.3 -0.1,-0.5 -0.3,-0.8c-0.2,-0.2 -0.6,-0.4 -1,-0.6l-0.2,-0.1c-0.5,0.2 -0.8,0.4 -1,0.7c-0.2,0.2 -0.3,0.5 -0.3,0.8zm1.4,-4.7c-0.3,0 -0.6,0.1 -0.8,0.3c-0.2,0.2 -0.3,0.4 -0.3,0.7c0,0.2 0,0.3 0.1,0.5c0.1,0.1 0.2,0.3 0.3,0.4c0.1,0.1 0.4,0.3 0.7,0.4c0.4,-0.2 0.7,-0.4 0.9,-0.6c0.2,-0.2 0.3,-0.4 0.3,-0.7c0,-0.3 -0.1,-0.5 -0.3,-0.7c-0.3,-0.3 -0.6,-0.3 -0.9,-0.3z" class="st0"/>
   <path id="svg_55" stroke-width="1.1667" stroke="#FFFFFF" fill="none" d="m486.4,301.7l77.1,0c1.8,0 3.3,1.5 3.3,3.3l0,22.8c0,1.8 -1.5,3.3 -3.3,3.3l-77.1,0c-1.8,0 -3.3,-1.5 -3.3,-3.3l0,-22.8c-0.1,-1.8 1.4,-3.3 3.3,-3.3z" class="st18"/>
   <path id="svg_56" fill="#FFFFFF" d="m615.3,322.4c-0.3,0 -0.6,0 -0.8,-0.1l0,-1c0.3,0.1 0.5,0.1 0.8,0.1c0.7,0 1,-0.4 1,-1.3l0,-7.3l1.2,0l0,7.3c0,0.8 -0.2,1.4 -0.6,1.8c-0.3,0.3 -0.9,0.5 -1.6,0.5zm8.1,-2.1l-0.2,-0.7l-0.1,0c-0.2,0.3 -0.4,0.5 -0.7,0.6c-0.3,0.2 -0.7,0.2 -1.1,0.2c-0.7,0 -1.2,-0.2 -1.6,-0.5c-0.3,-0.3 -0.5,-0.9 -0.5,-1.6l0,-3.7l1.2,0l0,3.5c0,0.4 0.1,0.8 0.3,1c0.2,0.2 0.5,0.3 0.8,0.3c0.5,0 0.9,-0.2 1.1,-0.5c0.2,-0.3 0.4,-0.8 0.4,-1.5l0,-2.9l1.2,0l0,5.7l-0.8,0l0,0.1zm7.7,0l-1.2,0l0,-3.5c0,-0.4 -0.1,-0.8 -0.3,-1c-0.2,-0.2 -0.5,-0.3 -0.8,-0.3c-0.5,0 -0.9,0.2 -1.1,0.5c-0.2,0.3 -0.4,0.8 -0.4,1.5l0,2.9l-1.2,0l0,-5.7l1,0l0.2,0.8l0.1,0c0.2,-0.3 0.4,-0.5 0.7,-0.6c0.3,-0.1 0.7,-0.2 1.1,-0.2c1.4,0 2.1,0.7 2.1,2.1l0,3.5l-0.2,0zm4.1,-3.2c0,-3 1.2,-4.4 3.6,-4.4c0.4,0 0.7,0 1,0.1l0,1c-0.3,-0.1 -0.6,-0.1 -0.9,-0.1c-0.8,0 -1.4,0.2 -1.8,0.7c-0.4,0.4 -0.6,1.1 -0.7,2.1l0.1,0c0.2,-0.3 0.4,-0.5 0.7,-0.6c0.3,-0.2 0.6,-0.2 1,-0.2c0.7,0 1.2,0.2 1.6,0.6c0.4,0.4 0.6,1 0.6,1.7c0,0.8 -0.2,1.4 -0.7,1.9c-0.4,0.5 -1,0.7 -1.8,0.7c-0.5,0 -1,-0.1 -1.4,-0.4c-0.4,-0.3 -0.7,-0.6 -0.9,-1.1c-0.3,-0.7 -0.4,-1.3 -0.4,-2zm2.6,2.3c0.4,0 0.7,-0.1 1,-0.4c0.2,-0.3 0.3,-0.7 0.3,-1.2c0,-0.4 -0.1,-0.8 -0.3,-1c-0.2,-0.2 -0.5,-0.4 -1,-0.4c-0.3,0 -0.5,0.1 -0.7,0.2c-0.2,0.1 -0.4,0.3 -0.5,0.5c-0.1,0.2 -0.2,0.4 -0.2,0.6c0,0.5 0.1,0.9 0.4,1.2c0.2,0.3 0.6,0.5 1,0.5zm5,-0.2c-0.2,0.6 -0.5,1.5 -0.9,2.5l-0.9,0c0.2,-0.9 0.4,-1.8 0.5,-2.6l1.2,0l0.1,0.1zm9.1,1.1l-5.1,0l0,-0.9l1.9,-2c0.6,-0.6 1,-1 1.1,-1.3c0.2,-0.2 0.3,-0.5 0.4,-0.7c0.1,-0.2 0.1,-0.4 0.1,-0.7c0,-0.3 -0.1,-0.6 -0.3,-0.8c-0.2,-0.2 -0.5,-0.3 -0.8,-0.3c-0.3,0 -0.6,0.1 -0.8,0.2c-0.3,0.1 -0.6,0.3 -0.9,0.6l-0.7,-0.8c0.4,-0.4 0.8,-0.6 1.2,-0.8c0.4,-0.1 0.8,-0.2 1.3,-0.2c0.7,0 1.3,0.2 1.7,0.6c0.4,0.4 0.6,0.9 0.6,1.5c0,0.3 -0.1,0.7 -0.2,1c-0.1,0.3 -0.3,0.6 -0.6,1c-0.3,0.3 -0.7,0.8 -1.3,1.3l-1.3,1.3l0,0.1l3.6,0l0,0.9l0.1,0zm6,-3.8c0,1.3 -0.2,2.3 -0.6,2.9c-0.4,0.6 -1.1,1 -1.9,1c-0.8,0 -1.5,-0.3 -1.9,-1c-0.4,-0.7 -0.7,-1.6 -0.7,-2.9c0,-1.3 0.2,-2.3 0.6,-2.9c0.4,-0.6 1.1,-1 1.9,-1c0.8,0 1.5,0.3 1.9,1c0.5,0.6 0.7,1.6 0.7,2.9zm-3.9,0c0,1 0.1,1.8 0.3,2.2c0.2,0.4 0.6,0.7 1,0.7c0.5,0 0.8,-0.2 1,-0.7c0.2,-0.4 0.3,-1.2 0.3,-2.2c0,-1 -0.1,-1.7 -0.3,-2.2c-0.2,-0.5 -0.6,-0.7 -1,-0.7c-0.5,0 -0.8,0.2 -1,0.7c-0.2,0.4 -0.3,1.2 -0.3,2.2zm8.4,3.8l-1.2,0l0,-4.9c0,-0.6 0,-1 0,-1.4c-0.1,0.1 -0.2,0.2 -0.3,0.3c-0.1,0.1 -0.5,0.4 -1.2,1l-0.6,-0.8l2.2,-1.7l1,0l0,7.5l0.1,0zm7.6,-4.4c0,1.5 -0.3,2.6 -0.9,3.3c-0.6,0.7 -1.5,1.1 -2.7,1.1c-0.5,0 -0.8,0 -1,-0.1l0,-1c0.3,0.1 0.6,0.1 0.9,0.1c0.8,0 1.4,-0.2 1.8,-0.7c0.4,-0.4 0.6,-1.1 0.7,-2.1l-0.1,0c-0.2,0.3 -0.4,0.5 -0.7,0.7c-0.3,0.1 -0.6,0.2 -1,0.2c-0.7,0 -1.2,-0.2 -1.6,-0.6c-0.4,-0.4 -0.6,-1 -0.6,-1.7c0,-0.8 0.2,-1.4 0.7,-1.9c0.4,-0.5 1,-0.7 1.8,-0.7c0.5,0 1,0.1 1.4,0.4c0.4,0.3 0.7,0.6 0.9,1.1c0.3,0.6 0.4,1.2 0.4,1.9zm-2.6,-2.3c-0.4,0 -0.7,0.1 -1,0.4c-0.2,0.3 -0.3,0.7 -0.3,1.2c0,0.4 0.1,0.8 0.3,1c0.2,0.2 0.5,0.4 1,0.4c0.4,0 0.8,-0.1 1,-0.4c0.3,-0.2 0.4,-0.5 0.4,-0.9c0,-0.3 -0.1,-0.6 -0.2,-0.9c-0.1,-0.3 -0.3,-0.5 -0.5,-0.6c-0.2,-0.1 -0.4,-0.2 -0.7,-0.2z" class="st0"/>
   <path id="svg_57" stroke-width="1.1667" stroke="#FFFFFF" fill="none" d="m604.4,301.7l77.1,0c1.8,0 3.3,1.5 3.3,3.3l0,22.8c0,1.8 -1.5,3.3 -3.3,3.3l-77.1,0c-1.8,0 -3.3,-1.5 -3.3,-3.3l0,-22.8c-0.1,-1.8 1.4,-3.3 3.3,-3.3z" class="st18"/>
   <path id="svg_58" fill="#FFFFFF" d="m581.6,319.4c0.3,0 0.6,0 0.9,-0.1l0,0.9c-0.1,0.1 -0.3,0.1 -0.5,0.1c-0.2,0 -0.4,0.1 -0.7,0.1c-1.2,0 -1.7,-0.6 -1.7,-1.8l0,-3.1l-0.8,0l0,-0.5l0.8,-0.4l0.4,-1.2l0.7,0l0,1.3l1.6,0l0,0.9l-1.6,0l0,3.1c0,0.3 0.1,0.5 0.2,0.7c0.3,-0.1 0.4,0 0.7,0zm7.1,-2c0,0.9 -0.2,1.7 -0.7,2.2c-0.5,0.5 -1.1,0.8 -2,0.8c-0.5,0 -1,-0.1 -1.4,-0.4c-0.4,-0.2 -0.7,-0.6 -0.9,-1c-0.2,-0.5 -0.3,-1 -0.3,-1.6c0,-0.9 0.2,-1.7 0.7,-2.2c0.5,-0.5 1.1,-0.8 2,-0.8c0.8,0 1.5,0.3 2,0.8c0.4,0.6 0.6,1.3 0.6,2.2zm-4.2,0c0,1.3 0.5,2 1.5,2c1,0 1.4,-0.7 1.4,-2c0,-1.3 -0.5,-2 -1.5,-2c-0.5,0 -0.9,0.2 -1.1,0.5c-0.2,0.4 -0.3,0.9 -0.3,1.5z" class="st0"/>
  </g>
  <path id="svg_59" fill="#FFFFFF" d="m501.8,506.8l-1.7,0l0,-6.7c0,-0.8 0,-1.4 0.1,-1.9c-0.1,0.1 -0.2,0.2 -0.4,0.4c-0.2,0.1 -0.7,0.6 -1.6,1.3l-0.8,-1.1l3.1,-2.4l1.4,0l0,10.4l-0.1,0zm8.7,0l-3,-8.7l-0.1,0c0.1,1.3 0.1,2.5 0.1,3.6l0,5.1l-1.5,0l0,-10.4l2.4,0l2.9,8.3l0,0l3,-8.3l2.4,0l0,10.4l-1.6,0l0,-5.2c0,-0.5 0,-1.2 0,-2c0,-0.8 0.1,-1.3 0.1,-1.5l-0.1,0l-3.1,8.7l-1.5,0z" class="st0"/>
  <path id="svg_60" fill="#FFFFFF" d="m503.8,471.5c0,0.7 -0.2,1.2 -0.6,1.7c-0.4,0.4 -0.9,0.7 -1.6,0.9l0,0.1c0.8,0.1 1.5,0.4 1.9,0.8c0.4,0.4 0.6,1 0.6,1.7c0,1 -0.4,1.8 -1.1,2.3c-0.7,0.5 -1.7,0.8 -3,0.8c-1.2,0 -2.1,-0.2 -2.9,-0.6l0,-1.5c0.4,0.2 0.9,0.4 1.4,0.5c0.5,0.1 1,0.2 1.4,0.2c0.8,0 1.4,-0.2 1.8,-0.4c0.4,-0.3 0.6,-0.8 0.6,-1.4c0,-0.6 -0.2,-1 -0.7,-1.2c-0.4,-0.3 -1.1,-0.4 -2.1,-0.4l-0.9,0l0,-1.4l0.9,0c1.7,0 2.5,-0.6 2.5,-1.7c0,-0.4 -0.1,-0.8 -0.4,-1c-0.3,-0.2 -0.7,-0.4 -1.3,-0.4c-0.4,0 -0.8,0.1 -1.1,0.2c-0.4,0.1 -0.8,0.3 -1.3,0.6l-0.8,-1.2c1,-0.7 2.1,-1.1 3.3,-1.1c1.1,0 1.9,0.2 2.5,0.7c0.6,0.4 0.9,1 0.9,1.8zm6.9,8l-3,-8.7l-0.1,0c0.1,1.3 0.1,2.5 0.1,3.6l0,5.1l-1.5,0l0,-10.4l2.4,0l2.9,8.3l0,0l3,-8.3l2.4,0l0,10.4l-1.6,0l0,-5.2c0,-0.5 0,-1.2 0,-2c0,-0.8 0.1,-1.3 0.1,-1.5l-0.1,0l-3.1,8.7l-1.5,0z" class="st0"/>
  <path id="svg_61" fill="#FFFFFF" d="m497.2,447.7c0,-4.1 1.7,-6.1 5,-6.1c0.5,0 1,0 1.3,0.1l0,1.4c-0.4,-0.1 -0.8,-0.2 -1.3,-0.2c-1.1,0 -2,0.3 -2.5,0.9c-0.6,0.6 -0.9,1.6 -0.9,2.9l0.1,0c0.2,-0.4 0.5,-0.7 0.9,-0.9c0.4,-0.2 0.9,-0.3 1.4,-0.3c0.9,0 1.7,0.3 2.2,0.9c0.5,0.6 0.8,1.4 0.8,2.4c0,1.1 -0.3,2 -0.9,2.6c-0.6,0.6 -1.4,0.9 -2.5,0.9c-0.7,0 -1.4,-0.2 -1.9,-0.5c-0.6,-0.4 -1,-0.9 -1.3,-1.6c-0.3,-0.7 -0.4,-1.5 -0.4,-2.5zm3.6,3.2c0.6,0 1,-0.2 1.3,-0.6c0.3,-0.4 0.5,-0.9 0.5,-1.6c0,-0.6 -0.1,-1.1 -0.4,-1.4c-0.3,-0.3 -0.7,-0.5 -1.3,-0.5c-0.4,0 -0.7,0.1 -1,0.2c-0.3,0.2 -0.5,0.4 -0.7,0.6c-0.2,0.3 -0.3,0.5 -0.3,0.8c0,0.7 0.2,1.2 0.5,1.7c0.4,0.6 0.9,0.8 1.4,0.8zm10,1.3l-3,-8.7l-0.1,0c0.1,1.3 0.1,2.5 0.1,3.6l0,5.1l-1.5,0l0,-10.4l2.4,0l2.9,8.3l0,0l3,-8.3l2.4,0l0,10.4l-1.6,0l0,-5.2c0,-0.5 0,-1.2 0,-2c0,-0.8 0.1,-1.3 0.1,-1.5l-0.1,0l-3.1,8.7l-1.5,0z" class="st0"/>
  <path id="svg_62" fill="#FFFFFF" d="m498,419.2l2.5,-4.8l1.9,0l-3.5,6.4l0,4l-1.7,0l0,-4l-3.5,-6.4l1.9,0l2.4,4.8zm9.3,5.7l-1.7,0l0,-9l-3.1,0l0,-1.5l7.8,0l0,1.5l-3.1,0l0,9l0.1,0zm13.1,-5.3c0,1.7 -0.5,3 -1.4,4c-1,0.9 -2.3,1.4 -4.1,1.4l-2.9,0l0,-10.4l3.2,0c1.7,0 3,0.4 3.9,1.3c0.9,0.8 1.3,2.1 1.3,3.7zm-1.8,0.1c0,-2.5 -1.2,-3.7 -3.5,-3.7l-1.5,0l0,7.6l1.2,0c2.6,-0.1 3.8,-1.4 3.8,-3.9z" class="st0"/>
  <path id="svg_63" fill="#FFFFFF" d="m503.5,397.8l-1.7,0l0,-6.7c0,-0.8 0,-1.4 0.1,-1.9c-0.1,0.1 -0.2,0.2 -0.4,0.4c-0.2,0.1 -0.7,0.6 -1.6,1.3l-0.8,-1.1l3.1,-2.4l1.4,0l0,10.4l-0.1,0zm7.1,-5.7l2.5,-4.8l1.9,0l-3.5,6.4l0,4l-1.7,0l0,-4l-3.5,-6.4l1.9,0l2.4,4.8z" class="st0"/>
  <g id="svg_64">
   <path id="svg_65" fill="#5AC5A1" d="m494.4,349.3l23.7,0c5.1,0 9.2,4.1 9.2,9.2l0,5.3c0,5.1 -4.1,9.2 -9.2,9.2l-23.7,0c-5.1,0 -9.2,-4.1 -9.2,-9.2l0,-5.3c0.1,-5.1 4.2,-9.2 9.2,-9.2z" class="st5"/>
   <path id="svg_66" fill="#FFFFFF" d="m505.2,366.4l-1,-2.9l-4,0l-1,2.9l-1.8,0l3.9,-10.5l1.9,0l3.9,10.5l-1.9,0zm-1.5,-4.4l-1,-2.8c-0.1,-0.2 -0.2,-0.5 -0.3,-0.9c-0.1,-0.4 -0.2,-0.7 -0.3,-0.9c-0.1,0.6 -0.3,1.2 -0.6,1.9l-0.9,2.7l3.1,0zm6.2,4.4l-1.7,0l0,-11.1l1.7,0l0,11.1zm4.1,0l-1.7,0l0,-11.1l1.7,0l0,11.1z" class="st0"/>
  </g>
 </g>
</svg>